<svg width="24" height="21" viewBox="0 0 24 21" fill="none" xmlns="http://www.w3.org/2000/svg">
<path d="M0.5 0.806641V2.55709H3.16507L7.74844 14.8342L9.06385 14.8308C7.70114 14.9228 6.6033 16.0639 6.60431 17.4479C6.60537 18.8905 7.79598 20.0764 9.23855 20.0753C10.6811 20.0743 11.867 18.8871 11.8659 17.4445C11.8649 16.0581 10.7656 14.9174 9.39956 14.8308L19.4501 14.8103L23.1839 6.3937L21.5808 5.68461L18.3094 13.0598L8.96451 13.0804L4.38114 0.806641H0.5ZM8.35134 6.05799L8.35477 7.81187H11.8591L11.8557 6.05799H8.35134ZM13.6164 6.05799L13.6198 7.81187H17.1241L17.1207 6.05799H13.6164ZM10.1052 9.5726L10.1086 11.3265H13.613L13.6095 9.5726H10.1052ZM15.3703 9.5726L15.3737 11.3265H18.878L18.8746 9.5726H15.3703ZM18.0045 14.8171C16.5619 14.8182 15.3726 16.0054 15.3737 17.4479C15.3748 18.8905 16.5654 20.0798 18.0079 20.0787C19.4505 20.0777 20.6364 18.8871 20.6353 17.4445C20.6343 16.0019 19.4471 14.8161 18.0045 14.8171ZM9.23513 16.5676C9.72984 16.5672 10.1117 16.9497 10.1121 17.4445C10.1124 17.9391 9.72984 18.3211 9.23513 18.3214C8.74042 18.3218 8.35855 17.9425 8.35819 17.4479C8.35783 16.9531 8.74042 16.5679 9.23513 16.5676ZM18.0045 16.571C18.4992 16.5706 18.8811 16.9497 18.8815 17.4445C18.8818 17.9391 18.4992 18.3245 18.0045 18.3249C17.5098 18.3252 17.1279 17.9425 17.1276 17.4479C17.1272 16.9531 17.5098 16.5713 18.0045 16.571Z" fill="#7486C7"/>
</svg>
