<svg width="25" height="24" viewBox="0 0 25 24" fill="none" xmlns="http://www.w3.org/2000/svg">
<path d="M9.94237 20.7714V17.7047C9.94235 16.9246 10.5783 16.2908 11.3662 16.2856H14.2522C15.0439 16.2856 15.6857 16.9209 15.6857 17.7047V20.7809C15.6855 21.4432 16.2194 21.9845 16.8882 22H18.8122C20.7303 22 22.2852 20.4607 22.2852 18.5618V9.83784C22.2749 9.09083 21.9206 8.38935 21.3231 7.93303L14.7429 2.6853C13.5901 1.77157 11.9514 1.77157 10.7986 2.6853L4.24718 7.94256C3.64741 8.39702 3.29254 9.09967 3.28516 9.84736V18.5618C3.28516 20.4607 4.84003 22 6.75807 22H8.68212C9.36751 22 9.92313 21.4499 9.92313 20.7714" stroke="#7486C7" stroke-width="1.5" stroke-linecap="round" stroke-linejoin="round"/>
</svg>
