<svg width="19" height="21" viewBox="0 0 19 21" fill="none" xmlns="http://www.w3.org/2000/svg">
<path d="M17.634 3.13199L18.2882 2.45772C18.4617 2.27634 18.5592 2.03033 18.5592 1.77382C18.5592 1.51731 18.4617 1.2713 18.2882 1.08992C18.1147 0.90854 17.8794 0.806641 17.634 0.806641C17.3887 0.806641 17.1534 0.90854 16.9799 1.08992L15.69 2.44809L13.0825 5.17405L7.26876 11.2425C6.31612 10.5854 5.16408 10.3214 4.03587 10.5016C2.90767 10.6819 1.88363 11.2935 1.16217 12.2181C0.44072 13.1426 0.0732222 14.3142 0.130888 15.5059C0.188555 16.6975 0.66728 17.8244 1.4743 18.6681C2.28132 19.5118 3.35918 20.0123 4.49903 20.0726C5.63887 20.1329 6.75955 19.7487 7.6439 18.9944C8.52825 18.2402 9.11331 17.1696 9.28572 15.9901C9.45813 14.8106 9.20561 13.6062 8.57709 12.6103L13.7275 7.21612L15.6808 9.26781C15.7667 9.35699 15.8685 9.42761 15.9805 9.47563C16.0926 9.52365 16.2125 9.54814 16.3336 9.54769C16.4546 9.54724 16.5744 9.52187 16.6861 9.47302C16.7978 9.42417 16.8992 9.35281 16.9845 9.263C17.0698 9.17319 17.1373 9.06669 17.1833 8.94959C17.2292 8.83249 17.2526 8.70707 17.2522 8.58051C17.2518 8.45394 17.2275 8.32871 17.1808 8.21195C17.1341 8.09519 17.0658 7.98919 16.9799 7.90002L15.0266 5.85795L16.3349 4.49978L16.9799 5.17405C17.0652 5.26386 17.1666 5.33523 17.2783 5.38408C17.3899 5.43292 17.5097 5.4583 17.6308 5.45874C17.7519 5.45919 17.8718 5.4347 17.9838 5.38668C18.0958 5.33866 18.1977 5.26805 18.2836 5.17887C18.3695 5.08969 18.4378 4.98369 18.4845 4.86693C18.5312 4.75018 18.5555 4.62494 18.5559 4.49837C18.5563 4.37181 18.5329 4.2464 18.487 4.12929C18.4411 4.01219 18.3735 3.9057 18.2882 3.81589L17.634 3.13199ZM4.73503 18.1489C4.18835 18.1489 3.65394 17.9794 3.19939 17.6619C2.74484 17.3443 2.39056 16.893 2.18136 16.365C1.97215 15.837 1.91741 15.2559 2.02407 14.6954C2.13072 14.1348 2.39397 13.62 2.78053 13.2158C3.1671 12.8117 3.65961 12.5365 4.19579 12.425C4.73196 12.3135 5.28773 12.3707 5.7928 12.5894C6.29786 12.8081 6.72955 13.1785 7.03327 13.6537C7.33699 14.1289 7.4991 14.6876 7.4991 15.2592C7.4991 16.0256 7.20789 16.7606 6.68953 17.3025C6.17116 17.8444 5.46811 18.1489 4.73503 18.1489Z" fill="#7486C7"/>
</svg>
