<svg width="114" height="30" viewBox="0 0 114 30" fill="none" xmlns="http://www.w3.org/2000/svg">
<path d="M13.7563 12.7463H11.5618V4.80052H11.4966L8.29867 12.6321H6.74866L3.55076 4.80052H3.48549V12.7463H1.29102V0.974456H4.14629L7.49103 9.32H7.55629L10.901 0.974456H13.7563V12.7463Z" fill="#444444"/>
<path d="M25.2573 12.7463L24.36 9.89106H20.2239L19.3265 12.7463H16.7976L20.8847 0.974456H23.7808L27.876 12.7463H25.2573ZM22.2634 3.22604L20.7542 8.04737H23.8297L22.3205 3.22604H22.2634Z" fill="#444444"/>
<path d="M43.3826 12.7463H41.1881V4.80052H41.1229L37.9249 12.6321H36.3749L33.177 4.80052H33.1118V12.7463H30.9173V0.974456H33.7726L37.1173 9.32H37.1826L40.5273 0.974456H43.3826V12.7463Z" fill="#444444"/>
<path d="M54.8836 12.7463L53.9863 9.89106H49.8502L48.9528 12.7463H46.4239L50.511 0.974456H53.407L57.5023 12.7463H54.8836ZM51.8897 3.22604L50.3805 8.04737H53.456L51.9468 3.22604H51.8897Z" fill="#444444"/>
<path d="M70.7736 12.7463H68.3099V7.78632H63.0073V12.7463H60.5436V0.974456H63.0073V5.75499H68.3099V0.974456H70.7736V12.7463Z" fill="#444444"/>
<path d="M82.2746 12.7463L81.3773 9.89106H77.2412L76.3438 12.7463H73.8149L77.902 0.974456H80.7981L84.8933 12.7463H82.2746ZM79.2807 3.22604L77.7715 8.04737H80.847L79.3378 3.22604H79.2807Z" fill="#444444"/>
<path d="M91.3283 7.81079C91.2794 8.52325 91.1978 9.10246 91.0836 9.54842C90.9693 9.98895 90.7899 10.3533 90.5451 10.6416V10.7068H95.3502V2.99762H91.6383L91.3283 7.81079ZM89.3133 12.7463V15.0713H87.078V10.7068H87.902C88.2936 10.4404 88.5709 10.0733 88.7341 9.60553C88.8972 9.13237 89.006 8.47158 89.0604 7.62316L89.4683 0.974456H97.8138V10.7068H99.2823V15.0713H97.0552V12.7463H89.3133Z" fill="#444444"/>
<path d="M103.506 2.41025C104.529 1.31709 105.913 0.770508 107.659 0.770508C109.405 0.770508 110.786 1.31709 111.803 2.41025C112.826 3.50341 113.337 4.98815 113.337 6.86447C113.337 8.73535 112.826 10.2174 111.803 11.3105C110.781 12.4037 109.399 12.9503 107.659 12.9503C105.913 12.9503 104.529 12.4037 103.506 11.3105C102.489 10.2174 101.981 8.73535 101.981 6.86447C101.981 4.98815 102.489 3.50341 103.506 2.41025ZM109.959 3.91946C109.388 3.19069 108.621 2.8263 107.659 2.8263C106.696 2.8263 105.927 3.19069 105.35 3.91946C104.779 4.64824 104.494 5.62991 104.494 6.86447C104.494 8.0936 104.779 9.07255 105.35 9.80132C105.921 10.5247 106.691 10.8863 107.659 10.8863C108.621 10.8863 109.388 10.5247 109.959 9.80132C110.53 9.07255 110.816 8.0936 110.816 6.86447C110.816 5.62991 110.53 4.64824 109.959 3.91946Z" fill="#444444"/>
<path d="M2.49403 25.1201C2.46074 25.6341 2.39973 26.0538 2.31098 26.3792C2.22592 26.701 2.0854 26.9691 1.88941 27.1835V27.2224H6.13839V20.5937H2.77138L2.49403 25.1201ZM1.04626 27.9102V29.4911H0.341797V27.2224H0.907589C1.18494 27.0781 1.39018 26.8285 1.5233 26.4735C1.65643 26.1185 1.73964 25.6581 1.77292 25.0923L2.0891 19.9059H6.89833V27.2224H7.91343V29.4911H7.20341V27.9102H1.04626Z" fill="#7486C7"/>
<path d="M14.9348 27.2224V27.9102H10.1034V19.9059H14.9348V20.5937H10.8578V23.4726H14.7296V24.1493H10.8578V27.2224H14.9348Z" fill="#7486C7"/>
<path d="M20.2921 27.9102H19.5321V20.5937H16.8918V19.9059H22.938V20.5937H20.2921V27.9102Z" fill="#7486C7"/>
<path d="M27.7905 28.0378C26.6996 28.0378 25.8324 27.6643 25.1889 26.9173C24.5455 26.1666 24.2238 25.157 24.2238 23.8886C24.2238 22.635 24.5455 21.6366 25.1889 20.8933C25.8361 20.15 26.7033 19.7783 27.7905 19.7783C28.6225 19.7783 29.3381 20.0187 29.9372 20.4994C30.5399 20.9765 30.9023 21.594 31.0244 22.3521H30.2533C30.1313 21.8011 29.841 21.3518 29.3825 21.0042C28.9276 20.6566 28.397 20.4828 27.7905 20.4828C26.9399 20.4828 26.2614 20.7916 25.7547 21.4091C25.2518 22.023 25.0004 22.8495 25.0004 23.8886C25.0004 24.9426 25.2518 25.7802 25.7547 26.4014C26.2614 27.0227 26.9418 27.3333 27.796 27.3333C28.421 27.3333 28.9535 27.1817 29.3936 26.8785C29.8373 26.5715 30.1221 26.1555 30.2478 25.6304H31.0188C30.8672 26.3811 30.5048 26.9709 29.9316 27.3999C29.3584 27.8251 28.6447 28.0378 27.7905 28.0378Z" fill="#7486C7"/>
<path d="M34.9727 23.75L39.2494 27.9102H38.1955L34.174 23.9829H34.1351V27.9102H33.3807V19.9059H34.1351V23.6279H34.174L37.9293 19.9059H38.9L34.9727 23.75Z" fill="#7486C7"/>
<path d="M46.648 27.9102L45.7605 25.4584H42.399L41.5115 27.9102H40.7072L43.7026 19.9059H44.4569L47.4468 27.9102H46.648ZM44.0631 20.8433L42.6264 24.8039H45.5331L44.0964 20.8433H44.0631Z" fill="#7486C7"/>
<path d="M54.041 24.0107V20.5937H52.144C51.519 20.5937 51.0327 20.7435 50.6851 21.043C50.3412 21.3389 50.1692 21.7567 50.1692 22.2967C50.1692 22.8366 50.343 23.2581 50.6906 23.5614C51.0383 23.8609 51.5227 24.0107 52.144 24.0107H54.041ZM52.1828 24.6985L49.9307 27.9102H49.0321L51.3507 24.6042C50.7591 24.4896 50.2857 24.227 49.9307 23.8165C49.5757 23.406 49.3982 22.8994 49.3982 22.2967C49.3982 21.5829 49.633 21.0061 50.1027 20.566C50.576 20.1259 51.1954 19.9059 51.9609 19.9059H54.7954V27.9102H54.041V24.6985H52.1828Z" fill="#7486C7"/>
<path d="M64.3229 19.7783C65.4397 19.7783 66.3254 20.15 66.9799 20.8933C67.6345 21.6366 67.9617 22.6424 67.9617 23.9108C67.9617 25.1792 67.6345 26.1851 66.9799 26.9284C66.3254 27.668 65.4397 28.0378 64.3229 28.0378C63.2061 28.0378 62.3205 27.668 61.6659 26.9284C61.0151 26.1851 60.6896 25.1792 60.6896 23.9108C60.6896 22.6424 61.0169 21.6366 61.6715 20.8933C62.326 20.15 63.2098 19.7783 64.3229 19.7783ZM66.4086 21.4091C65.8946 20.7916 65.1993 20.4828 64.3229 20.4828C63.4465 20.4828 62.7513 20.7916 62.2372 21.4091C61.7232 22.0267 61.4662 22.8606 61.4662 23.9108C61.4662 24.9611 61.7232 25.7949 62.2372 26.4125C62.7513 27.0264 63.4465 27.3333 64.3229 27.3333C65.1993 27.3333 65.8946 27.0245 66.4086 26.407C66.9263 25.7894 67.1852 24.9574 67.1852 23.9108C67.1852 22.8606 66.9263 22.0267 66.4086 21.4091Z" fill="#7486C7"/>
<path d="M71.5273 25.1201C71.494 25.6341 71.433 26.0538 71.3443 26.3792C71.2592 26.701 71.1187 26.9691 70.9227 27.1835V27.2224H75.1717V20.5937H71.8047L71.5273 25.1201ZM70.0796 27.9102V29.4911H69.3751V27.2224H69.9409C70.2182 27.0781 70.4235 26.8285 70.5566 26.4735C70.6897 26.1185 70.7729 25.6581 70.8062 25.0923L71.1224 19.9059H75.9316V27.2224H76.9467V29.4911H76.2367V27.9102H70.0796Z" fill="#7486C7"/>
<path d="M83.9681 27.2224V27.9102H79.1367V19.9059H83.9681V20.5937H79.8911V23.4726H83.7629V24.1493H79.8911V27.2224H83.9681Z" fill="#7486C7"/>
<path d="M92.1044 23.75L96.0705 27.9102H95.0388L91.3278 23.9829H91.289V27.9102H90.5291V23.9829H90.4958L86.7627 27.9102H85.7698L89.7026 23.7611L86.0748 19.9059H87.0511L90.4958 23.6279H90.5291V19.9059H91.289V23.6279H91.3278L94.7781 19.9059H95.7266L92.1044 23.75Z" fill="#7486C7"/>
<path d="M99.6084 25.1201C99.5751 25.6341 99.5141 26.0538 99.4253 26.3792C99.3403 26.701 99.1997 26.9691 99.0037 27.1835V27.2224H103.253V20.5937H99.8857L99.6084 25.1201ZM98.1606 27.9102V29.4911H97.4561V27.2224H98.0219C98.2993 27.0781 98.5045 26.8285 98.6376 26.4735C98.7708 26.1185 98.854 25.6581 98.8873 25.0923L99.2034 19.9059H104.013V27.2224H105.028V29.4911H104.318V27.9102H98.1606Z" fill="#7486C7"/>
<path d="M112.537 27.9102L111.65 25.4584H108.288L107.401 27.9102H106.596L109.592 19.9059H110.346L113.336 27.9102H112.537ZM109.952 20.8433L108.516 24.8039H111.422L109.986 20.8433H109.952Z" fill="#7486C7"/>
</svg>
