<svg width="88" height="23" viewBox="0 0 88 23" fill="none" xmlns="http://www.w3.org/2000/svg">
<path d="M10.9003 9.32325H9.21069V3.20542H9.16044L6.69823 9.23531H5.50482L3.04261 3.20542H2.99236V9.32325H1.30273V0.259567H3.50113L6.0764 6.68517H6.12665L8.70191 0.259567H10.9003V9.32325Z" fill="white"/>
<path d="M19.7555 9.32325L19.0645 7.12485H15.88L15.1891 9.32325H13.2419L16.3888 0.259567H18.6186L21.7717 9.32325H19.7555ZM17.4503 1.99316L16.2883 5.70531H18.6563L17.4943 1.99316H17.4503Z" fill="white"/>
<path d="M33.7109 9.32325H32.0213V3.20542H31.971L29.5088 9.23531H28.3154L25.8532 3.20542H25.8029V9.32325H24.1133V0.259567H26.3117L28.887 6.68517H28.9372L31.5125 0.259567H33.7109V9.32325Z" fill="white"/>
<path d="M42.566 9.32325L41.8751 7.12485H38.6906L37.9997 9.32325H36.0525L39.1993 0.259567H41.4292L44.5823 9.32325H42.566ZM40.2609 1.99316L39.0989 5.70531H41.4668L40.3048 1.99316H40.2609Z" fill="white"/>
<path d="M54.8004 9.32325H52.9035V5.50432H48.8208V9.32325H46.9239V0.259567H48.8208V3.94031H52.9035V0.259567H54.8004V9.32325Z" fill="white"/>
<path d="M63.6556 9.32325L62.9647 7.12485H59.7801L59.0892 9.32325H57.142L60.2889 0.259567H62.5187L65.6718 9.32325H63.6556ZM61.3504 1.99316L60.1884 5.70531H62.5564L61.3944 1.99316H61.3504Z" fill="white"/>
<path d="M70.6264 5.52316C70.5887 6.07171 70.5259 6.51767 70.438 6.86104C70.35 7.20022 70.2118 7.48078 70.0234 7.70271V7.75296H73.723V1.81729H70.8651L70.6264 5.52316ZM69.075 9.32325V11.1134H67.3539V7.75296H67.9883C68.2898 7.54778 68.5034 7.26513 68.629 6.90501C68.7546 6.5407 68.8384 6.03193 68.8802 5.37869L69.1943 0.259567H75.6199V7.75296H76.7505V11.1134H75.0358V9.32325H69.075Z" fill="white"/>
<path d="M80.0029 1.36505C80.7901 0.523375 81.8558 0.102539 83.2 0.102539C84.5441 0.102539 85.6077 0.523375 86.3908 1.36505C87.178 2.20672 87.5716 3.34989 87.5716 4.79455C87.5716 6.23502 87.178 7.3761 86.3908 8.21777C85.6036 9.05944 84.54 9.48028 83.2 9.48028C81.8558 9.48028 80.7901 9.05944 80.0029 8.21777C79.2198 7.3761 78.8283 6.23502 78.8283 4.79455C78.8283 3.34989 79.2198 2.20672 80.0029 1.36505ZM84.9713 2.52706C84.5316 1.96594 83.9412 1.68539 83.2 1.68539C82.4588 1.68539 81.8663 1.96594 81.4224 2.52706C80.9827 3.08817 80.7629 3.844 80.7629 4.79455C80.7629 5.74091 80.9827 6.49464 81.4224 7.05576C81.8621 7.61269 82.4546 7.89115 83.2 7.89115C83.9412 7.89115 84.5316 7.61269 84.9713 7.05576C85.4109 6.49464 85.6308 5.74091 85.6308 4.79455C85.6308 3.844 85.4109 3.08817 84.9713 2.52706Z" fill="white"/>
<path d="M2.22936 18.8511C2.20374 19.2469 2.15676 19.5701 2.08842 19.8206C2.02294 20.0683 1.91474 20.2747 1.76384 20.4399V20.4698H5.03532V15.3661H2.4429L2.22936 18.8511ZM1.11467 20.9994V22.2166H0.572266V20.4698H1.00789C1.22144 20.3587 1.37946 20.1666 1.48196 19.8932C1.58446 19.6199 1.64852 19.2654 1.67415 18.8298L1.91759 14.8365H5.62043V20.4698H6.402V22.2166H5.85533V20.9994H1.11467Z" fill="white"/>
<path d="M11.8081 20.4698V20.9994H8.08814V14.8365H11.8081V15.3661H8.66897V17.5827H11.65V18.1037H8.66897V20.4698H11.8081Z" fill="white"/>
<path d="M15.9329 20.9994H15.3478V15.3661H13.3148V14.8365H17.9701V15.3661H15.9329V20.9994Z" fill="white"/>
<path d="M21.7062 21.0976C20.8663 21.0976 20.1986 20.81 19.7032 20.2349C19.2078 19.6569 18.96 18.8796 18.96 17.903C18.96 16.9378 19.2078 16.169 19.7032 15.5967C20.2014 15.0244 20.8691 14.7383 21.7062 14.7383C22.3468 14.7383 22.8978 14.9234 23.359 15.2935C23.8231 15.6608 24.1022 16.1363 24.1961 16.72H23.6025C23.5085 16.2957 23.285 15.9498 22.932 15.6821C22.5817 15.4145 22.1732 15.2807 21.7062 15.2807C21.0514 15.2807 20.5289 15.5184 20.1388 15.9939C19.7516 16.4666 19.558 17.1029 19.558 17.903C19.558 18.7145 19.7516 19.3594 20.1388 19.8377C20.5289 20.316 21.0528 20.5552 21.7105 20.5552C22.1917 20.5552 22.6017 20.4385 22.9405 20.205C23.2822 19.9687 23.5014 19.6484 23.5982 19.244H24.1919C24.0751 19.822 23.7961 20.2762 23.3548 20.6064C22.9134 20.9339 22.3639 21.0976 21.7062 21.0976Z" fill="white"/>
<path d="M27.2361 17.7962L30.529 20.9994H29.7175L26.6211 17.9756H26.5912V20.9994H26.0104V14.8365H26.5912V17.7023H26.6211L29.5125 14.8365H30.2599L27.2361 17.7962Z" fill="white"/>
<path d="M36.2255 20.9994L35.5421 19.1116H32.954L32.2706 20.9994H31.6514L33.9576 14.8365H34.5385L36.8405 20.9994H36.2255ZM34.2352 15.5583L33.1291 18.6077H35.367L34.2609 15.5583H34.2352Z" fill="white"/>
<path d="M41.9177 17.997V15.3661H40.457C39.9758 15.3661 39.6014 15.4814 39.3338 15.712C39.069 15.9398 38.9366 16.2616 38.9366 16.6773C38.9366 17.093 39.0704 17.4175 39.3381 17.651C39.6057 17.8816 39.9787 17.997 40.457 17.997H41.9177ZM40.4869 18.5265L38.7529 20.9994H38.0611L39.8463 18.4539C39.3907 18.3657 39.0263 18.1635 38.7529 17.8475C38.4796 17.5314 38.3429 17.1414 38.3429 16.6773C38.3429 16.1277 38.5237 15.6836 38.8853 15.3447C39.2498 15.0059 39.7267 14.8365 40.3161 14.8365H42.4985V20.9994H41.9177V18.5265H40.4869Z" fill="white"/>
<path d="M49.8341 14.7383C50.694 14.7383 51.3759 15.0244 51.8799 15.5967C52.3838 16.169 52.6358 16.9435 52.6358 17.9201C52.6358 18.8967 52.3838 19.6711 51.8799 20.2434C51.3759 20.8129 50.694 21.0976 49.8341 21.0976C48.9743 21.0976 48.2924 20.8129 47.7884 20.2434C47.2873 19.6711 47.0367 18.8967 47.0367 17.9201C47.0367 16.9435 47.2887 16.169 47.7927 15.5967C48.2966 15.0244 48.9771 14.7383 49.8341 14.7383ZM51.44 15.9939C51.0442 15.5184 50.5089 15.2807 49.8341 15.2807C49.1593 15.2807 48.6241 15.5184 48.2283 15.9939C47.8325 16.4694 47.6346 17.1115 47.6346 17.9201C47.6346 18.7287 47.8325 19.3707 48.2283 19.8462C48.6241 20.3189 49.1593 20.5552 49.8341 20.5552C50.5089 20.5552 51.0442 20.3175 51.44 19.842C51.8386 19.3665 52.0379 18.7258 52.0379 17.9201C52.0379 17.1115 51.8386 16.4694 51.44 15.9939Z" fill="white"/>
<path d="M55.3811 18.8511C55.3555 19.2469 55.3085 19.5701 55.2402 19.8206C55.1747 20.0683 55.0665 20.2747 54.9156 20.4399V20.4698H58.1871V15.3661H55.5947L55.3811 18.8511ZM54.2664 20.9994V22.2166H53.724V20.4698H54.1597C54.3732 20.3587 54.5312 20.1666 54.6337 19.8932C54.7362 19.6199 54.8003 19.2654 54.8259 18.8298L55.0694 14.8365H58.7722V20.4698H59.5538V22.2166H59.0071V20.9994H54.2664Z" fill="white"/>
<path d="M64.9598 20.4698V20.9994H61.2399V14.8365H64.9598V15.3661H61.8207V17.5827H64.8018V18.1037H61.8207V20.4698H64.9598Z" fill="white"/>
<path d="M71.2243 17.7962L74.278 20.9994H73.4836L70.6264 17.9756H70.5965V20.9994H70.0114V17.9756H69.9858L67.1115 20.9994H66.347L69.3751 17.8048L66.5819 14.8365H67.3336L69.9858 17.7023H70.0114V14.8365H70.5965V17.7023H70.6264L73.2829 14.8365H74.0132L71.2243 17.7962Z" fill="white"/>
<path d="M77.002 18.8511C76.9763 19.2469 76.9294 19.5701 76.861 19.8206C76.7955 20.0683 76.6873 20.2747 76.5364 20.4399V20.4698H79.8079V15.3661H77.2155L77.002 18.8511ZM75.8873 20.9994V22.2166H75.3449V20.4698H75.7805C75.994 20.3587 76.1521 20.1666 76.2546 19.8932C76.3571 19.6199 76.4211 19.2654 76.4467 18.8298L76.6902 14.8365H80.393V20.4698H81.1746V22.2166H80.6279V20.9994H75.8873Z" fill="white"/>
<path d="M86.9565 20.9994L86.2732 19.1116H83.685L83.0017 20.9994H82.3824L84.6887 14.8365H85.2695L87.5715 20.9994H86.9565ZM84.9663 15.5583L83.8601 18.6077H86.0981L84.9919 15.5583H84.9663Z" fill="white"/>
</svg>
