<svg width="15" height="17" viewBox="0 0 15 17" fill="none" xmlns="http://www.w3.org/2000/svg">
<g clip-path="url(#clip0_83_2484)">
<path d="M13.8397 11.7155L12.4597 10.2435C11.6978 9.43084 10.4623 9.43084 9.70085 10.2435C9.41703 10.5458 9.24019 10.918 9.16716 11.3079C6.89151 10.854 4.67822 8.50284 4.54045 6.40137C4.91466 6.32726 5.2723 6.13695 5.56164 5.82874C6.32348 5.01569 6.32348 3.69779 5.56164 2.88516L4.18203 1.41358C3.42019 0.600949 2.18467 0.600949 1.42282 1.41358C-2.71599 5.82874 9.70085 19.0734 13.8397 14.6582C14.6015 13.846 14.6015 12.5281 13.8397 11.7155Z" fill="#7486C7"/>
</g>
<defs>
<clipPath id="clip0_83_2484">
<rect width="15" height="16" fill="white" transform="translate(0 0.175781)"/>
</clipPath>
</defs>
</svg>
