<svg width="11" height="12" viewBox="0 0 11 12" fill="none" xmlns="http://www.w3.org/2000/svg">
<path d="M6.24647 6.15154L10.3789 2.0257C10.5024 1.90219 10.5718 1.73466 10.5718 1.55999C10.5718 1.38531 10.5024 1.21779 10.3789 1.09427C10.2554 0.970757 10.0878 0.901367 9.91315 0.901367C9.73847 0.901367 9.57095 0.970757 9.44744 1.09427L5.3216 5.22667L1.19577 1.09427C1.07225 0.970757 0.904728 0.901367 0.730052 0.901367C0.555375 0.901367 0.387852 0.970757 0.264337 1.09427C0.140822 1.21779 0.0714321 1.38531 0.0714321 1.55999C0.0714321 1.73466 0.140822 1.90219 0.264337 2.0257L4.39673 6.15154L0.264337 10.2774C0.202857 10.3384 0.15406 10.4109 0.120759 10.4908C0.0874577 10.5708 0.0703125 10.6565 0.0703125 10.7431C0.0703125 10.8297 0.0874577 10.9154 0.120759 10.9953C0.15406 11.0753 0.202857 11.1478 0.264337 11.2088C0.325315 11.2703 0.397862 11.3191 0.477794 11.3524C0.557726 11.3857 0.64346 11.4028 0.730052 11.4028C0.816643 11.4028 0.902377 11.3857 0.982309 11.3524C1.06224 11.3191 1.13479 11.2703 1.19577 11.2088L5.3216 7.07641L9.44744 11.2088C9.50842 11.2703 9.58096 11.3191 9.66089 11.3524C9.74083 11.3857 9.82656 11.4028 9.91315 11.4028C9.99974 11.4028 10.0855 11.3857 10.1654 11.3524C10.2453 11.3191 10.3179 11.2703 10.3789 11.2088C10.4403 11.1478 10.4891 11.0753 10.5224 10.9953C10.5557 10.9154 10.5729 10.8297 10.5729 10.7431C10.5729 10.6565 10.5557 10.5708 10.5224 10.4908C10.4891 10.4109 10.4403 10.3384 10.3789 10.2774L6.24647 6.15154Z" fill="#EE9797"/>
</svg>
