<svg width="23" height="24" viewBox="0 0 23 24" fill="none" xmlns="http://www.w3.org/2000/svg">
<path d="M11.5 3.09961C9.65198 3.09961 7.84547 3.64761 6.30889 4.67432C4.77232 5.70102 3.57471 7.16031 2.8675 8.86766C2.1603 10.575 1.97526 12.4537 2.33579 14.2662C2.69632 16.0787 3.58623 17.7436 4.89298 19.0504C6.19972 20.3571 7.86462 21.247 9.67713 21.6076C11.4896 21.9681 13.3684 21.7831 15.0757 21.0759C16.783 20.3687 18.2423 19.171 19.269 17.6345C20.2958 16.0979 20.8438 14.2914 20.8438 12.4434C20.8438 9.96524 19.8593 7.58862 18.107 5.83633C16.3547 4.08404 13.9781 3.09961 11.5 3.09961ZM11.8594 12.4434C11.8595 12.5273 11.8303 12.6087 11.7767 12.6734L9.44079 15.4873C9.37979 15.5607 9.29213 15.6068 9.1971 15.6156C9.10207 15.6243 9.00746 15.595 8.93407 15.534C8.86068 15.473 8.81452 15.3853 8.80576 15.2903C8.797 15.1953 8.82635 15.1007 8.88735 15.0273L11.1406 12.314V5.97461C11.1406 5.8793 11.1785 5.78789 11.2459 5.72049C11.3133 5.6531 11.4047 5.61523 11.5 5.61523C11.5953 5.61523 11.6867 5.6531 11.7541 5.72049C11.8215 5.78789 11.8594 5.8793 11.8594 5.97461V12.4434Z" fill="#7486C7"/>
</svg>
