<svg width="25" height="24" viewBox="0 0 25 24" fill="none" xmlns="http://www.w3.org/2000/svg">
<path d="M17.2856 5.25C17.2856 2.76856 15.2671 0.75 12.7856 0.75C10.3042 0.75 8.28564 2.76856 8.28564 5.25C8.28564 7.73144 10.3042 9.75 12.7856 9.75C15.2671 9.75 17.2856 7.73144 17.2856 5.25ZM9.78564 5.25C9.78564 3.59582 11.1311 2.25 12.7856 2.25C14.4402 2.25 15.7856 3.59582 15.7856 5.25C15.7856 6.90418 14.4402 8.25 12.7856 8.25C11.1311 8.25 9.78564 6.90418 9.78564 5.25ZM4.69531 18.8525V21C4.69531 22.2407 5.70459 23.25 6.94531 23.25H18.626C19.8667 23.25 20.876 22.2407 20.876 21V18.8525C20.876 14.3914 17.2468 10.7622 12.7856 10.7622C8.32446 10.7622 4.69531 14.3914 4.69531 18.8525ZM12.7856 12.2622C16.4199 12.2622 19.376 15.2186 19.376 18.8525V21C19.376 21.4135 19.0398 21.75 18.626 21.75H6.94531C6.53149 21.75 6.19531 21.4135 6.19531 21V18.8525C6.19531 15.2186 9.15137 12.2622 12.7856 12.2622Z" fill="#CCCCCC"/>
</svg>
