<svg width="23" height="20" viewBox="0 0 23 20" fill="none" xmlns="http://www.w3.org/2000/svg">
<path d="M12.1541 3.8586L11.3414 4.99122L10.5289 3.85839C9.63724 2.61498 8.1876 1.80695 6.54835 1.80695C3.84217 1.80695 1.64844 4.00069 1.64844 6.70686C1.64844 7.08328 1.69617 7.45407 1.78138 7.81979L1.78924 7.85352L1.79475 7.8877C2.16048 10.1584 3.63706 12.5978 5.59107 14.6859C7.42229 16.6428 9.56377 18.1746 11.3416 18.9079C13.1191 18.1746 15.2607 16.6428 17.0919 14.6859C19.046 12.5977 20.5223 10.1585 20.8872 7.88804L20.8929 7.85238L20.9012 7.81723C20.987 7.45323 21.0347 7.08323 21.0347 6.70686C21.0347 4.00062 18.8409 1.80695 16.1354 1.80695C14.4957 1.80695 13.0465 2.61491 12.1541 3.8586Z" stroke="#7486C7" stroke-width="2"/>
</svg>
