<svg width="17" height="17" viewBox="0 0 17 17" fill="none" xmlns="http://www.w3.org/2000/svg">
<path d="M11.4489 3.21289C10.2136 3.21289 9.12539 3.88494 8.50774 4.94102C7.89009 3.88494 6.80185 3.21289 5.56654 3.21289C3.62535 3.21289 2.03711 4.94102 2.03711 7.05317C2.03711 10.8614 8.50774 14.7337 8.50774 14.7337C8.50774 14.7337 14.9784 10.8018 14.9784 7.05317C14.9784 4.94102 13.3901 3.21289 11.4489 3.21289Z" fill="white"/>
<path d="M9.11181 5.07365L8.50837 5.89059L7.90515 5.07349C7.37635 4.35719 6.51062 3.88467 5.52366 3.88467C3.88809 3.88467 2.59961 5.16713 2.59961 6.70373C2.59961 6.91718 2.62746 7.12878 2.67796 7.33932L2.68418 7.36526L2.68854 7.39158C2.90888 8.72046 3.805 10.1695 5.01298 11.4235C6.12911 12.5822 7.42906 13.4886 8.50852 13.9308C9.58788 13.4886 10.8879 12.5822 12.004 11.4235C13.212 10.1695 14.1079 8.72054 14.3278 7.39184L14.3323 7.36439L14.3389 7.33735C14.3896 7.12814 14.4175 6.91714 14.4175 6.70373C14.4175 5.16708 13.1289 3.88467 11.4938 3.88467C10.5065 3.88467 9.64107 4.35714 9.11181 5.07365Z" stroke="#E0E0E0" stroke-width="1.5"/>
</svg>
