<svg width="15" height="16" viewBox="0 0 15 16" fill="none" xmlns="http://www.w3.org/2000/svg">
<path d="M12.8032 2.52298C9.87411 -0.406099 5.12589 -0.406099 2.19681 2.52298C-0.732271 5.45207 -0.732271 10.2003 2.19681 13.1294C5.12589 16.0584 9.87411 16.0584 12.8032 13.1294C15.7323 10.2003 15.7317 5.45207 12.8032 2.52298V2.52298ZM11.5816 5.97165L7.02422 10.5297C6.91171 10.6421 6.75913 10.7053 6.60004 10.7053C6.44094 10.7053 6.28837 10.6421 6.17585 10.5297L3.41836 7.77157C3.36266 7.71587 3.31847 7.64974 3.28832 7.57696C3.25818 7.50417 3.24266 7.42617 3.24266 7.34739C3.24266 7.18829 3.30586 7.03571 3.41836 6.92321C3.53086 6.81071 3.68345 6.74751 3.84255 6.74751C4.00165 6.74751 4.15423 6.81071 4.26673 6.92321L6.60004 9.25651L10.7333 5.12268C10.789 5.06698 10.8552 5.0228 10.928 4.99266C11.0008 4.96253 11.0789 4.94704 11.1577 4.94707C11.2365 4.94709 11.3145 4.96264 11.3873 4.99283C11.4601 5.02301 11.5262 5.06724 11.5819 5.12298C11.6376 5.17872 11.6818 5.24489 11.712 5.31771C11.7421 5.39053 11.7576 5.46857 11.7576 5.54738C11.7575 5.62618 11.742 5.70421 11.7118 5.77701C11.6816 5.8498 11.6374 5.91594 11.5816 5.97165V5.97165Z" fill="#7486C7"/>
</svg>
