<svg width="114" height="18" viewBox="0 0 114 18" fill="none" xmlns="http://www.w3.org/2000/svg">
<path d="M8.69098 0L10.9898 5.52696L16.9566 6.00532L12.4105 9.89953L13.7994 15.7221L8.69098 12.6019L3.58255 15.7221L4.97145 9.89953L0.425366 6.00532L6.39219 5.52696L8.69098 0Z" fill="#7486C7"/>
<path d="M32.7496 0L35.0484 5.52696L41.0152 6.00532L36.4691 9.89953L37.858 15.7221L32.7496 12.6019L27.6411 15.7221L29.03 9.89953L24.484 6.00532L30.4508 5.52696L32.7496 0Z" fill="#7486C7"/>
<path d="M56.814 0L59.1128 5.52696L65.0796 6.00532L60.5336 9.89953L61.9225 15.7221L56.814 12.6019L51.7056 15.7221L53.0945 9.89953L48.5484 6.00532L54.5152 5.52696L56.814 0Z" fill="#7486C7"/>
<path d="M80.898 0L83.1968 5.52696L89.1636 6.00532L84.6175 9.89953L86.0064 15.7221L80.898 12.6019L75.7896 15.7221L77.1785 9.89953L72.6324 6.00532L78.5992 5.52696L80.898 0Z" fill="#7486C7"/>
<path d="M104.961 0L107.259 5.52696L113.226 6.00532L108.68 9.89953L110.069 15.7221L104.961 12.6019L99.8521 15.7221L101.241 9.89953L96.6949 6.00532L102.662 5.52696L104.961 0Z" fill="#7486C7"/>
</svg>
