<svg width="22" height="20" viewBox="0 0 22 20" fill="none" xmlns="http://www.w3.org/2000/svg">
<path d="M11.6443 3.58028L10.8316 4.7129L10.0192 3.58007C9.12747 2.33666 7.67784 1.52863 6.03858 1.52863C3.3324 1.52863 1.13867 3.72237 1.13867 6.42854C1.13867 6.80496 1.1864 7.17575 1.27162 7.54147L1.27948 7.5752L1.28498 7.60938C1.65072 9.88008 3.1273 12.3194 5.0813 14.4076C6.91252 16.3645 9.054 17.8963 10.8318 18.6296C12.6094 17.8963 14.751 16.3644 16.5822 14.4076C18.5362 12.3194 20.0125 9.88019 20.3774 7.60972L20.3831 7.57406L20.3914 7.53891C20.4772 7.17491 20.525 6.80491 20.525 6.42854C20.525 3.7223 18.3312 1.52863 15.6256 1.52863C13.9859 1.52863 12.5367 2.33659 11.6443 3.58028Z" fill="#7486C7" stroke="#7486C7" stroke-width="2"/>
</svg>
