<svg width="21" height="18" viewBox="0 0 21 18" fill="none" xmlns="http://www.w3.org/2000/svg">
<path d="M0.128906 0.046875V1.59318H2.48316L6.53198 12.4385L7.69398 12.4354C6.4902 12.5167 5.52039 13.5247 5.52129 14.7473C5.52222 16.0216 6.57398 17.0692 7.84831 17.0683C9.12264 17.0674 10.1702 16.0186 10.1693 14.7443C10.1684 13.5196 9.19724 12.512 7.99053 12.4354L16.8689 12.4173L20.1673 4.98233L18.7511 4.35594L15.8612 10.871L7.60623 10.8891L3.5574 0.046875H0.128906ZM7.06457 4.68578L7.06759 6.23511H10.1632L10.1602 4.68578H7.06457ZM11.7156 4.68578L11.7186 6.23511H14.8142L14.8112 4.68578H11.7156ZM8.61389 7.79048L8.61692 9.33981H11.7125L11.7095 7.79048H8.61389ZM13.2649 7.79048L13.2679 9.33981H16.3636L16.3605 7.79048H13.2649ZM15.5919 12.4233C14.3176 12.4243 13.267 13.473 13.2679 14.7473C13.2689 16.0216 14.3206 17.0722 15.5949 17.0713C16.8693 17.0704 17.9168 16.0186 17.9159 14.7443C17.915 13.47 16.8662 12.4224 15.5919 12.4233ZM7.84528 13.9696C8.28229 13.9693 8.61962 14.3072 8.61995 14.7443C8.62027 15.1812 8.28229 15.5187 7.84528 15.519C7.40827 15.5193 7.07094 15.1842 7.07062 14.7473C7.0703 14.3103 7.40827 13.9699 7.84528 13.9696ZM15.5919 13.9727C16.0289 13.9724 16.3663 14.3072 16.3666 14.7443C16.3669 15.1812 16.0289 15.5217 15.5919 15.522C15.1549 15.5223 14.8176 15.1842 14.8173 14.7473C14.8169 14.3103 15.1549 13.973 15.5919 13.9727Z" fill="#E0E0E0"/>
</svg>
