<svg width="31" height="31" viewBox="0 0 31 31" fill="none" xmlns="http://www.w3.org/2000/svg">
<circle cx="15.9121" cy="15.8184" r="15" fill="#7486C7"/>
<path d="M22.6621 11.1823C22.6621 10.0593 21.6712 9.06836 20.5481 9.06836H12.0261C10.903 9.06836 9.91211 10.0593 9.91211 11.1823V19.7044C9.91211 20.8274 10.903 21.8184 12.0261 21.8184H16.3201V16.9958H14.7346V14.8818H16.3201V14.023C16.3201 12.5697 17.3771 11.3145 18.6984 11.3145H20.416V13.4285H18.6984C18.5002 13.4285 18.302 13.6266 18.302 14.023V14.8818H20.416V16.9958H18.302V21.8184H20.5481C21.6712 21.8184 22.6621 20.8274 22.6621 19.7044V11.1823Z" fill="white"/>
</svg>
