<svg width="31" height="31" viewBox="0 0 31 31" fill="none" xmlns="http://www.w3.org/2000/svg">
<circle cx="15.9121" cy="15.8184" r="15" fill="#7486C7"/>
<path d="M20.8477 9.81836H11.7265C10.6967 9.81836 9.91211 10.603 9.91211 11.6328V20.7539C9.91211 21.7837 10.6967 22.5684 11.7265 22.5684H20.8477C21.8775 22.5684 22.6621 21.7837 22.6621 20.7539V11.6328C22.6621 10.603 21.8775 9.81836 20.8477 9.81836ZM16.2871 20.0184C18.3958 20.0184 20.1121 18.3511 20.1121 16.3405C20.1121 15.9972 20.0631 15.6049 19.965 15.3107H21.0438V20.5087C21.0438 20.7539 20.8477 20.9991 20.5535 20.9991H12.0208C11.7756 20.9991 11.5304 20.803 11.5304 20.5087V15.2616H12.6583C12.5602 15.6049 12.5111 15.9482 12.5111 16.2914C12.4621 18.3511 14.1785 20.0184 16.2871 20.0184ZM16.2871 18.5472C14.914 18.5472 13.8352 17.4684 13.8352 16.1443C13.8352 14.8203 14.914 13.7414 16.2871 13.7414C17.6602 13.7414 18.739 14.8203 18.739 16.1443C18.739 17.5174 17.6602 18.5472 16.2871 18.5472ZM20.9948 13.3001C20.9948 13.5943 20.7496 13.8395 20.4554 13.8395H19.0823C18.7881 13.8395 18.5429 13.5943 18.5429 13.3001V11.9761C18.5429 11.6818 18.7881 11.4366 19.0823 11.4366H20.4554C20.7496 11.4366 20.9948 11.6818 20.9948 11.9761V13.3001Z" fill="white"/>
</svg>
