<svg width="31" height="31" viewBox="0 0 31 31" fill="none" xmlns="http://www.w3.org/2000/svg">
<circle cx="15.9121" cy="15.8184" r="15" fill="#7486C7"/>
<path d="M23.2663 19.6541C23.2663 19.5918 23.204 19.5918 23.204 19.5295C22.9549 19.0314 22.3945 18.4087 21.6473 17.7238C21.2737 17.4125 21.0869 17.1634 20.9624 17.0388C20.7756 16.7898 20.7756 16.603 20.8378 16.3539C20.9001 16.1671 21.1492 15.8558 21.585 15.2954C21.8341 14.984 21.9586 14.7972 22.1454 14.6104C23.0794 13.3651 23.5153 12.5556 23.3908 12.182L23.3285 12.1197C23.2663 12.0575 23.204 11.9952 23.0794 11.9952C22.9549 11.9329 22.7681 11.9329 22.5813 11.9952H20.2152C20.1529 11.9952 20.1529 11.9952 20.0284 11.9952C19.9661 11.9952 19.9038 11.9952 19.9038 11.9952H19.8416H19.7793L19.717 12.0575C19.6548 12.1197 19.6547 12.1197 19.6547 12.182C19.4057 12.8669 19.0943 13.4273 18.783 14.05C18.5962 14.3614 18.4094 14.6727 18.2226 14.9218C18.0358 15.1708 17.9113 15.3576 17.7867 15.4822C17.6622 15.6067 17.5377 15.669 17.4754 15.7935C17.4131 15.8558 17.2886 15.918 17.2886 15.8558C17.2263 15.8558 17.1641 15.8558 17.1641 15.7935C17.1018 15.7312 17.0395 15.669 16.9773 15.6067C16.915 15.5444 16.915 15.4199 16.8527 15.2954C16.8527 15.1708 16.8527 15.0463 16.8527 14.984C16.8527 14.9218 16.8527 14.735 16.8527 14.6104C16.8527 14.4236 16.8527 14.2991 16.8527 14.2368C16.8527 14.05 16.8527 13.801 16.8527 13.5519C16.8527 13.3028 16.8527 13.116 16.8527 12.9915C16.8527 12.8669 16.8527 12.6801 16.8527 12.5556C16.8527 12.3688 16.8527 12.2443 16.8527 12.182C16.8527 12.1197 16.7905 11.9952 16.7905 11.9329C16.7282 11.8707 16.6659 11.8084 16.6037 11.7461C16.5414 11.6839 16.4169 11.6839 16.3546 11.6216C16.0433 11.5593 15.6697 11.4971 15.2338 11.4971C14.2375 11.4971 13.5526 11.5593 13.3035 11.6839C13.179 11.7461 13.0544 11.8084 12.9922 11.9329C12.8676 12.0575 12.8676 12.1197 12.9299 12.1197C13.2412 12.182 13.4903 12.3065 13.6148 12.4933L13.6771 12.6179C13.7394 12.6801 13.7394 12.8047 13.8016 12.9915C13.8639 13.1783 13.8639 13.3651 13.8639 13.6142C13.8639 13.9878 13.8639 14.3614 13.8639 14.6104C13.8639 14.9218 13.8016 15.1086 13.8016 15.2954C13.8016 15.4822 13.7394 15.6067 13.6771 15.669C13.6148 15.7935 13.6148 15.8558 13.5526 15.8558C13.5526 15.8558 13.5526 15.918 13.4903 15.918C13.428 15.918 13.3658 15.9803 13.2412 15.9803C13.179 15.9803 13.0544 15.918 12.9922 15.8558C12.8676 15.7935 12.7431 15.669 12.6808 15.5444C12.5563 15.4199 12.4318 15.2331 12.3072 14.984C12.1827 14.735 11.9959 14.4859 11.8713 14.1123L11.7468 13.8632C11.6846 13.7387 11.56 13.4896 11.4355 13.1783C11.311 12.8669 11.1864 12.6179 11.0619 12.3065C10.9996 12.182 10.9374 12.1197 10.8751 12.0575H10.8128C10.8128 12.0575 10.7505 11.9952 10.6883 11.9952C10.626 11.9952 10.5637 11.9329 10.5015 11.9329H8.25986C8.01079 11.9329 7.88626 11.9952 7.82399 12.0575L7.76172 12.1197C7.76172 12.1197 7.76172 12.182 7.76172 12.2443C7.76172 12.3065 7.76172 12.3688 7.82399 12.4933C8.13533 13.2405 8.50893 13.9878 8.88253 14.735C9.25613 15.4199 9.62974 16.0426 9.87881 16.4784C10.1901 16.9143 10.4392 17.3502 10.7505 17.7238C11.0619 18.0974 11.2487 18.3465 11.3109 18.471C11.4355 18.5955 11.4977 18.6578 11.56 18.7201L11.7468 18.9069C11.8714 19.0314 12.0582 19.2182 12.3072 19.405C12.5563 19.5918 12.8676 19.7786 13.179 19.9654C13.4903 20.1522 13.8639 20.2767 14.2375 20.4013C14.6734 20.5258 15.047 20.5881 15.4206 20.5258H16.3546C16.5414 20.5258 16.6659 20.4635 16.7905 20.339L16.8527 20.2767C16.8527 20.2145 16.915 20.2145 16.915 20.1522C16.915 20.0899 16.915 20.0277 16.915 19.9031C16.915 19.6541 16.915 19.4673 16.9773 19.2805C17.0395 19.0937 17.0395 18.9691 17.1018 18.8446C17.1641 18.7201 17.2263 18.6578 17.2886 18.5955C17.3509 18.5333 17.4131 18.471 17.4131 18.471H17.4754C17.5999 18.4087 17.7867 18.471 17.9113 18.5955C18.0981 18.7201 18.2849 18.9069 18.4094 19.0937C18.5339 19.2805 18.7208 19.4673 18.9698 19.7163C19.2189 19.9654 19.4057 20.1522 19.5302 20.2145L19.717 20.339C19.8416 20.4013 19.9661 20.4635 20.1529 20.5258C20.3397 20.5881 20.4642 20.5881 20.5888 20.5881L22.7059 20.5258C22.8927 20.5258 23.0795 20.4635 23.204 20.4013C23.3285 20.339 23.3908 20.2767 23.3908 20.1522C23.3908 20.0899 23.3908 19.9654 23.3908 19.9031C23.2662 19.7786 23.2663 19.7163 23.2663 19.6541Z" fill="white"/>
</svg>
