<svg width="31" height="31" viewBox="0 0 31 31" fill="none" xmlns="http://www.w3.org/2000/svg">
<circle cx="15.9121" cy="15.8184" r="15" fill="#7486C7"/>
<path d="M22.447 15.0032C22.447 14.7123 22.3985 14.3729 22.3985 13.985C22.35 13.5971 22.3015 13.2093 22.253 12.8699C22.156 12.482 22.0106 12.1911 21.7197 11.9487C21.4773 11.7062 21.1379 11.5608 20.7985 11.5123C19.6833 11.3668 18.0348 11.3184 15.8045 11.3184C13.5742 11.3184 11.8773 11.3668 10.8106 11.5123C10.4712 11.5608 10.1318 11.7062 9.88938 11.9487C9.64696 12.1911 9.45302 12.482 9.35605 12.8699C9.25908 13.2093 9.2106 13.5487 9.2106 13.985C9.16211 14.3729 9.16211 14.7123 9.16211 15.0032C9.16211 15.2941 9.16211 15.6335 9.16211 16.1184C9.16211 16.6032 9.16211 16.9911 9.16211 17.2335C9.16211 17.5244 9.2106 17.8638 9.2106 18.2517C9.25908 18.6396 9.30756 19.0274 9.35605 19.3668C9.45302 19.7547 9.59847 20.0456 9.88938 20.2881C10.1318 20.5305 10.4712 20.6759 10.8106 20.7244C11.9257 20.8699 13.5742 20.9184 15.8045 20.9184C18.0348 20.9184 19.7318 20.8699 20.7985 20.7244C21.1379 20.6759 21.4773 20.5305 21.7197 20.2881C21.9621 20.0456 22.156 19.7547 22.253 19.3668C22.35 19.0274 22.3985 18.6881 22.3985 18.2517C22.447 17.8638 22.447 17.5244 22.447 17.2335C22.447 16.9426 22.447 16.6032 22.447 16.1184C22.447 15.6335 22.447 15.2456 22.447 15.0032ZM18.3742 16.5062L14.5439 18.882C14.4954 18.9305 14.3985 18.979 14.3015 18.979C14.2045 18.979 14.1561 18.979 14.0591 18.9305C13.9136 18.8335 13.8167 18.6881 13.8167 18.4941V13.6941C13.8167 13.5002 13.9136 13.3547 14.0591 13.2578C14.2045 13.1608 14.3985 13.1608 14.5439 13.2578L18.3742 15.6335C18.5197 15.7305 18.6167 15.8759 18.6167 16.0214C18.6167 16.1668 18.5197 16.4093 18.3742 16.5062Z" fill="white"/>
</svg>
