<svg width="25" height="25" viewBox="0 0 25 25" fill="none" xmlns="http://www.w3.org/2000/svg">
<path d="M19.9922 4.97266H18.9922V3.97266C18.9922 3.37266 18.5922 2.97266 17.9922 2.97266C17.3922 2.97266 16.9922 3.37266 16.9922 3.97266V4.97266H8.99219V3.97266C8.99219 3.37266 8.59219 2.97266 7.99219 2.97266C7.39219 2.97266 6.99219 3.37266 6.99219 3.97266V4.97266H5.99219C4.29219 4.97266 2.99219 6.27266 2.99219 7.97266V8.97266H22.9922V7.97266C22.9922 6.27266 21.6922 4.97266 19.9922 4.97266ZM2.99219 19.9727C2.99219 21.6727 4.29219 22.9727 5.99219 22.9727H19.9922C21.6922 22.9727 22.9922 21.6727 22.9922 19.9727V10.9727H2.99219V19.9727ZM17.9922 12.9727C18.5922 12.9727 18.9922 13.3727 18.9922 13.9727C18.9922 14.5727 18.5922 14.9727 17.9922 14.9727C17.3922 14.9727 16.9922 14.5727 16.9922 13.9727C16.9922 13.3727 17.3922 12.9727 17.9922 12.9727ZM17.9922 16.9727C18.5922 16.9727 18.9922 17.3727 18.9922 17.9727C18.9922 18.5727 18.5922 18.9727 17.9922 18.9727C17.3922 18.9727 16.9922 18.5727 16.9922 17.9727C16.9922 17.3727 17.3922 16.9727 17.9922 16.9727ZM12.9922 12.9727C13.5922 12.9727 13.9922 13.3727 13.9922 13.9727C13.9922 14.5727 13.5922 14.9727 12.9922 14.9727C12.3922 14.9727 11.9922 14.5727 11.9922 13.9727C11.9922 13.3727 12.3922 12.9727 12.9922 12.9727ZM12.9922 16.9727C13.5922 16.9727 13.9922 17.3727 13.9922 17.9727C13.9922 18.5727 13.5922 18.9727 12.9922 18.9727C12.3922 18.9727 11.9922 18.5727 11.9922 17.9727C11.9922 17.3727 12.3922 16.9727 12.9922 16.9727ZM7.99219 12.9727C8.59219 12.9727 8.99219 13.3727 8.99219 13.9727C8.99219 14.5727 8.59219 14.9727 7.99219 14.9727C7.39219 14.9727 6.99219 14.5727 6.99219 13.9727C6.99219 13.3727 7.39219 12.9727 7.99219 12.9727ZM7.99219 16.9727C8.59219 16.9727 8.99219 17.3727 8.99219 17.9727C8.99219 18.5727 8.59219 18.9727 7.99219 18.9727C7.39219 18.9727 6.99219 18.5727 6.99219 17.9727C6.99219 17.3727 7.39219 16.9727 7.99219 16.9727Z" fill="#C6C6C6"/>
</svg>
