<svg width="18" height="19" viewBox="0 0 18 19" fill="none" xmlns="http://www.w3.org/2000/svg">
<path d="M1.33815 8.1113H4.0541C4.14742 8.64399 4.42558 9.12672 4.83967 9.47457C5.25375 9.82242 5.77723 10.0131 6.31803 10.0131C6.85883 10.0131 7.38232 9.82242 7.7964 9.47457C8.21048 9.12672 8.48865 8.64399 8.58197 8.1113H16.6609C16.7625 8.1113 16.8599 8.07095 16.9317 7.99911C17.0036 7.92727 17.0439 7.82983 17.0439 7.72824C17.0439 7.62664 17.0036 7.52921 16.9317 7.45737C16.8599 7.38553 16.7625 7.34517 16.6609 7.34517H8.58197C8.48865 6.81248 8.21048 6.32976 7.7964 5.98191C7.38232 5.63406 6.85883 5.44336 6.31803 5.44336C5.77723 5.44336 5.25375 5.63406 4.83967 5.98191C4.42558 6.32976 4.14742 6.81248 4.0541 7.34517H1.33815C1.23655 7.34517 1.13912 7.38553 1.06728 7.45737C0.995437 7.52921 0.955078 7.62664 0.955078 7.72824C0.955078 7.82983 0.995437 7.92727 1.06728 7.99911C1.13912 8.07095 1.23655 8.1113 1.33815 8.1113ZM6.31803 6.19596C6.62109 6.19596 6.91734 6.28583 7.16932 6.4542C7.4213 6.62257 7.6177 6.86187 7.73367 7.14186C7.84964 7.42185 7.87999 7.72994 7.82086 8.02717C7.76174 8.3244 7.61581 8.59743 7.40151 8.81172C7.18722 9.02601 6.9142 9.17194 6.61697 9.23107C6.31973 9.29019 6.01164 9.25985 5.73166 9.14387C5.45167 9.0279 5.21236 8.8315 5.044 8.57952C4.87563 8.32754 4.78576 8.03129 4.78576 7.72824C4.78576 7.32185 4.9472 6.93211 5.23455 6.64476C5.52191 6.3574 5.91165 6.19596 6.31803 6.19596ZM16.6609 13.0912H13.9449C13.8516 12.5585 13.5734 12.0758 13.1594 11.7279C12.7453 11.3801 12.2218 11.1894 11.681 11.1894C11.1402 11.1894 10.6167 11.3801 10.2026 11.7279C9.78854 12.0758 9.51037 12.5585 9.41706 13.0912H1.33815C1.23655 13.0912 1.13912 13.1316 1.06728 13.2034C0.995437 13.2752 0.955078 13.3727 0.955078 13.4743C0.955078 13.5759 0.995437 13.6733 1.06728 13.7451C1.13912 13.817 1.23655 13.8573 1.33815 13.8573H9.41706C9.51037 14.39 9.78854 14.8727 10.2026 15.2206C10.6167 15.5684 11.1402 15.7591 11.681 15.7591C12.2218 15.7591 12.7453 15.5684 13.1594 15.2206C13.5734 14.8727 13.8516 14.39 13.9449 13.8573H16.6609C16.7625 13.8573 16.8599 13.817 16.9317 13.7451C17.0036 13.6733 17.0439 13.5759 17.0439 13.4743C17.0439 13.3727 17.0036 13.2752 16.9317 13.2034C16.8599 13.1316 16.7625 13.0912 16.6609 13.0912ZM11.681 15.0065C11.3779 15.0065 11.0817 14.9167 10.8297 14.7483C10.5777 14.5799 10.3813 14.3406 10.2654 14.0606C10.1494 13.7806 10.119 13.4726 10.1782 13.1753C10.2373 12.8781 10.3832 12.6051 10.5975 12.3908C10.8118 12.1765 11.0848 12.0306 11.3821 11.9714C11.6793 11.9123 11.9874 11.9427 12.2674 12.0586C12.5474 12.1746 12.7867 12.371 12.955 12.623C13.1234 12.875 13.2133 13.1712 13.2133 13.4743C13.2133 13.8806 13.0518 14.2704 12.7645 14.5577C12.4771 14.8451 12.0874 15.0065 11.681 15.0065Z" fill="black"/>
</svg>
