<svg width="60" height="60" viewBox="0 0 60 60" fill="none" xmlns="http://www.w3.org/2000/svg">
<path d="M29.9999 55.0794C26.6605 55.085 23.3529 54.431 20.2669 53.1549C17.1809 51.8788 14.3774 50.0058 12.0171 47.6434C2.10106 37.7273 2.10106 21.5939 12.0171 11.6778C16.8205 6.8744 23.2068 4.22754 29.9999 4.22754C36.7931 4.22754 43.1793 6.87237 47.9827 11.6778C57.8988 21.5939 57.8988 37.7273 47.9827 47.6434C45.6225 50.0058 42.8189 51.8788 39.7329 53.1549C36.647 54.431 33.3393 55.085 29.9999 55.0794ZM29.9999 8.2965C27.1932 8.28876 24.4129 8.8379 21.8199 9.91211C19.2269 10.9863 16.8728 12.5643 14.8939 14.5546C6.56675 22.8837 6.56675 36.4354 14.8939 44.7666C23.2231 53.0938 36.7747 53.0938 45.106 44.7666C53.4331 36.4375 53.4331 22.8858 45.106 14.5546C43.1268 12.5646 40.7726 10.9869 38.1797 9.91274C35.5867 8.83855 32.8065 8.28921 29.9999 8.2965ZM46.5443 46.205H46.5647H46.5443Z" fill="#179214"/>
<path d="M26.9477 39.4227C26.6805 39.423 26.4159 39.3705 26.1691 39.2682C25.9222 39.1659 25.698 39.0158 25.5094 38.8266L16.877 30.1943C16.6882 30.0054 16.5383 29.7812 16.4361 29.5344C16.3339 29.2876 16.2813 29.0231 16.2812 28.756C16.2812 28.4888 16.3339 28.2243 16.4361 27.9775C16.5383 27.7307 16.6882 27.5065 16.877 27.3176C17.0659 27.1287 17.2902 26.9788 17.537 26.8766C17.7838 26.7744 18.0483 26.7218 18.3154 26.7218C18.5826 26.7218 18.8471 26.7744 19.0939 26.8766C19.3407 26.9788 19.5649 27.1287 19.7538 27.3176L26.9477 34.5115L40.2492 21.2101C40.4381 21.0212 40.6623 20.8713 40.9091 20.7691C41.1559 20.6669 41.4204 20.6143 41.6876 20.6143C41.9547 20.6143 42.2192 20.6669 42.466 20.7691C42.7128 20.8713 42.9371 21.0212 43.1259 21.2101C43.3148 21.3989 43.4647 21.6232 43.5669 21.87C43.6691 22.1168 43.7217 22.3813 43.7217 22.6484C43.7217 22.9156 43.6691 23.1801 43.5669 23.4269C43.4647 23.6737 43.3148 23.8979 43.1259 24.0868L28.3861 38.8266C28.1974 39.0158 27.9732 39.1659 27.7264 39.2682C27.4796 39.3705 27.2149 39.423 26.9477 39.4227Z" fill="#179214"/>
</svg>
