<svg width="17" height="17" viewBox="0 0 17 17" fill="none" xmlns="http://www.w3.org/2000/svg">
<path d="M9.14732 8.6427L13.3473 4.44937C13.4729 4.32383 13.5434 4.15357 13.5434 3.97604C13.5434 3.7985 13.4729 3.62824 13.3473 3.5027C13.2218 3.37717 13.0515 3.30664 12.874 3.30664C12.6964 3.30664 12.5262 3.37717 12.4007 3.5027L8.20732 7.7027L4.01398 3.5027C3.88845 3.37717 3.71818 3.30664 3.54065 3.30664C3.36311 3.30664 3.19285 3.37717 3.06732 3.5027C2.94178 3.62824 2.87126 3.7985 2.87126 3.97604C2.87126 4.15357 2.94178 4.32383 3.06732 4.44937L7.26732 8.6427L3.06732 12.836C3.00483 12.898 2.95523 12.9717 2.92139 13.053C2.88754 13.1342 2.87012 13.2214 2.87012 13.3094C2.87012 13.3974 2.88754 13.4845 2.92139 13.5658C2.95523 13.647 3.00483 13.7207 3.06732 13.7827C3.12929 13.8452 3.20303 13.8948 3.28426 13.9286C3.3655 13.9625 3.45264 13.9799 3.54065 13.9799C3.62866 13.9799 3.71579 13.9625 3.79703 13.9286C3.87827 13.8948 3.95201 13.8452 4.01398 13.7827L8.20732 9.5827L12.4007 13.7827C12.4626 13.8452 12.5364 13.8948 12.6176 13.9286C12.6988 13.9625 12.786 13.9799 12.874 13.9799C12.962 13.9799 13.0491 13.9625 13.1304 13.9286C13.2116 13.8948 13.2853 13.8452 13.3473 13.7827C13.4098 13.7207 13.4594 13.647 13.4932 13.5658C13.5271 13.4845 13.5445 13.3974 13.5445 13.3094C13.5445 13.2214 13.5271 13.1342 13.4932 13.053C13.4594 12.9717 13.4098 12.898 13.3473 12.836L9.14732 8.6427Z" fill="#383838"/>
</svg>
