<svg width="24" height="24" viewBox="0 0 24 24" fill="none" xmlns="http://www.w3.org/2000/svg">
<path d="M6.78676 16.2598C7.29184 16.4277 7.76081 16.6894 8.13709 17.0657L12.0374 20.966C12.8436 21.7722 13.9218 22.1837 14.9932 22.1837C16.042 22.1837 17.0839 21.7897 17.858 20.9858C19.3758 19.4101 19.3579 16.9022 17.8042 15.3485L13.5699 11.1142C13.3542 10.8985 13.2332 10.6061 13.2332 10.3009V1.51953H5.1832V8.53062C5.1832 9.16519 4.98126 9.7763 4.64454 10.3138C4.25745 10.9316 4.0332 11.6616 4.0332 12.4445C4.0332 14.2227 5.18734 15.728 6.78676 16.2598ZM6.9082 3.24453H11.5082V4.39453H6.9082V3.24453ZM6.10619 11.2297C6.63082 10.3925 6.9082 9.45913 6.9082 8.53062V5.54453H11.5082V10.3009C11.5082 11.0689 11.8072 11.7909 12.3502 12.3339L16.5845 16.5682C17.4647 17.4484 17.4788 18.8933 16.6158 19.7891C16.2 20.2208 15.6236 20.4587 14.9932 20.4587C14.3427 20.4587 13.7098 20.199 13.2571 19.7463L9.35701 15.846C8.81076 15.2998 8.12904 14.8883 7.33117 14.6229C6.39024 14.3101 5.7582 13.4347 5.7582 12.4445C5.7582 12.0133 5.87849 11.5931 6.10619 11.2297Z" fill="#444444"/>
</svg>
