<svg width="21" height="21" viewBox="0 0 21 21" fill="none" xmlns="http://www.w3.org/2000/svg">
<g clip-path="url(#clip0_205_22277)">
<path d="M5.70072 12.9139V15.682C5.7007 15.7798 5.72364 15.8763 5.76769 15.9636C5.81173 16.051 5.87566 16.1267 5.95433 16.1848C6.033 16.243 6.12421 16.2818 6.22063 16.2983C6.31705 16.3147 6.41598 16.3083 6.50947 16.2795L9.76322 15.2783V19.1195C9.76322 19.2853 9.82907 19.4443 9.94628 19.5615C10.0635 19.6787 10.2225 19.7445 10.3882 19.7445C10.554 19.7445 10.713 19.6787 10.8302 19.5615C10.9474 19.4443 11.0132 19.2853 11.0132 19.1195V15.2783L14.267 16.2783C14.3604 16.307 14.4592 16.3134 14.5555 16.2971C14.6518 16.2807 14.743 16.2419 14.8216 16.184C14.9002 16.126 14.9642 16.0504 15.0083 15.9632C15.0525 15.876 15.0755 15.7797 15.0757 15.682V13.2264L19.7542 8.54797C19.8418 8.46036 19.9013 8.34869 19.9253 8.22715C19.9493 8.1056 19.9367 7.97967 19.8889 7.86534C19.8412 7.75101 19.7606 7.65345 19.6573 7.58503C19.554 7.51661 19.4327 7.48044 19.3088 7.4811L18.1754 7.48703L18.1695 6.33516C18.1687 6.1716 18.1038 6.01488 17.9888 5.89862C17.8737 5.78235 17.7177 5.71582 17.5542 5.71328L16.3838 5.69547L16.4017 4.58047C16.4036 4.45602 16.3684 4.33382 16.3005 4.22952C16.2326 4.12521 16.1351 4.04356 16.0205 3.99502C15.9059 3.94648 15.7794 3.93326 15.6572 3.95706C15.5351 3.98085 15.4228 4.04059 15.3348 4.1286L13.5132 5.95016V1.61953C13.5133 1.49561 13.4765 1.37447 13.4075 1.27151C13.3385 1.16855 13.2405 1.08842 13.1259 1.04129C13.0113 0.994169 12.8852 0.98218 12.7638 1.00685C12.6424 1.03152 12.531 1.09174 12.4438 1.17985L11.6467 1.98547L10.8279 1.17516C10.7117 1.06001 10.555 0.995026 10.3914 0.99415C10.2278 0.993273 10.0703 1.05658 9.95291 1.17047L9.11291 1.98547L8.33728 1.18453C8.25069 1.09508 8.13935 1.03352 8.01754 1.00776C7.89573 0.982001 7.769 0.993207 7.6536 1.03994C7.5382 1.08668 7.43939 1.16682 7.36984 1.27008C7.30029 1.37335 7.26316 1.49503 7.26322 1.61953V5.63766L5.75416 4.12891C5.66654 4.04132 5.55487 3.98174 5.43333 3.95774C5.31179 3.93375 5.18586 3.94641 5.07153 3.99413C4.9572 4.04186 4.85963 4.12248 4.79122 4.22576C4.7228 4.32905 4.68662 4.45033 4.68728 4.57422L4.69322 5.70735L3.54103 5.7136C3.37753 5.71447 3.22089 5.77939 3.10469 5.89442C2.98849 6.00944 2.922 6.16543 2.91947 6.32891L2.90166 7.49891L1.78666 7.48141C1.6623 7.47955 1.54022 7.51485 1.43603 7.58276C1.33185 7.65068 1.25029 7.74814 1.2018 7.86267C1.15331 7.97719 1.1401 8.10358 1.16384 8.22566C1.18759 8.34774 1.24721 8.45997 1.33509 8.54797L5.70072 12.9139ZM3.50697 8.75766C3.58917 8.75984 3.67097 8.74538 3.74744 8.71515C3.82391 8.68491 3.89348 8.63953 3.95197 8.58172C4.01092 8.5246 4.05804 8.45642 4.09064 8.38109C4.12324 8.30575 4.14068 8.22473 4.14197 8.14266L4.16009 6.95953L5.32509 6.95328C5.40717 6.95283 5.48835 6.93622 5.56401 6.90439C5.63967 6.87257 5.70831 6.82615 5.76603 6.7678C5.82375 6.70944 5.86941 6.64029 5.9004 6.56429C5.93139 6.48828 5.94711 6.40692 5.94666 6.32485V6.08672L7.44666 7.58672C7.53397 7.67388 7.64512 7.73326 7.76611 7.75736C7.88711 7.78146 8.01253 7.76922 8.12657 7.72217C8.24062 7.67512 8.33819 7.59537 8.407 7.49297C8.4758 7.39057 8.51276 7.27009 8.51322 7.14672V3.16297L8.65009 3.30453C8.70725 3.36352 8.77548 3.41066 8.85087 3.44327C8.92626 3.47587 9.00734 3.49329 9.08947 3.49453C9.1716 3.49653 9.2533 3.48198 9.32969 3.45176C9.40609 3.42153 9.47562 3.37625 9.53416 3.3186L10.3838 2.49453L11.2117 3.31391C11.3303 3.42937 11.4892 3.49415 11.6548 3.49453C11.8205 3.49367 11.9791 3.42701 12.0957 3.30922L12.2632 3.13985V7.45922C12.2633 7.58279 12.3 7.70356 12.3687 7.80626C12.4374 7.90897 12.535 7.98901 12.6492 8.03627C12.7634 8.08352 12.889 8.09587 13.0102 8.07176C13.1314 8.04764 13.2427 7.98815 13.3301 7.90078L15.127 6.10391L15.1238 6.30078C15.1225 6.38289 15.1374 6.46445 15.1676 6.5408C15.1978 6.61716 15.2428 6.68681 15.2999 6.74579C15.3571 6.80476 15.4253 6.85189 15.5006 6.88449C15.576 6.91709 15.6571 6.93452 15.7392 6.93578L16.9226 6.95391L16.9288 8.11891C16.9298 8.28407 16.996 8.44216 17.1131 8.55863C17.2302 8.6751 17.3887 8.74047 17.5538 8.74047H17.5573H17.7954L14.0088 12.5258C13.8917 12.6429 13.8258 12.8017 13.8257 12.9673V14.8358L11.0132 13.9705V12.557L14.5132 9.93203C14.6458 9.83258 14.7335 9.68452 14.7569 9.52042C14.7804 9.35633 14.7377 9.18964 14.6382 9.05703C14.5388 8.92442 14.3907 8.83676 14.2266 8.81331C14.0625 8.78987 13.8958 8.83258 13.7632 8.93203L11.0132 10.9945V6.93203C11.0132 6.76627 10.9474 6.6073 10.8302 6.49009C10.713 6.37288 10.554 6.30703 10.3882 6.30703C10.2225 6.30703 10.0635 6.37288 9.94628 6.49009C9.82907 6.6073 9.76322 6.76627 9.76322 6.93203V10.9102L7.03822 8.63922C6.91087 8.53309 6.74658 8.4819 6.58149 8.4969C6.4164 8.5119 6.26403 8.59187 6.15791 8.71922C6.05178 8.84657 6.00058 9.01085 6.01559 9.17595C6.03059 9.34104 6.11056 9.4934 6.23791 9.59953L9.76322 12.5373V13.9705L6.95072 14.8358V12.6548C6.95068 12.4891 6.88481 12.3302 6.76759 12.213L3.31041 8.75547L3.50697 8.75766Z" fill="#444444"/>
</g>
<defs>
<clipPath id="clip0_205_22277">
<rect width="20" height="20" fill="white" transform="translate(0.388672 0.369141)"/>
</clipPath>
</defs>
</svg>
