<svg width="23" height="23" viewBox="0 0 23 23" fill="none" xmlns="http://www.w3.org/2000/svg">
<path d="M20.0456 2.77148H1.71224C1.59068 2.77148 1.4741 2.81977 1.38815 2.90573C1.30219 2.99168 1.25391 3.10826 1.25391 3.22982V15.7882C1.25625 15.909 1.30529 16.0242 1.39075 16.1096C1.4762 16.1951 1.59142 16.2441 1.71224 16.2465H10.7322L9.81557 17.7682C9.77535 17.8378 9.75417 17.9169 9.75417 17.9973C9.75417 18.0778 9.77535 18.1568 9.81557 18.2265C9.85557 18.2958 9.91299 18.3534 9.98214 18.3936C10.0513 18.4338 10.1298 18.4552 10.2097 18.4557H11.6947L12.4464 19.739C12.4875 19.8066 12.5455 19.8623 12.6145 19.9009C12.6836 19.9394 12.7615 19.9594 12.8406 19.959V19.959C12.9211 19.9615 13.0008 19.9413 13.0705 19.9008C13.1401 19.8603 13.1971 19.8011 13.2347 19.7298L14.5089 17.539L15.7739 19.7298C15.8116 19.8011 15.8685 19.8603 15.9382 19.9008C16.0079 19.9413 16.0875 19.9615 16.1681 19.959V19.959C16.2472 19.9594 16.325 19.9394 16.3941 19.9009C16.4632 19.8623 16.5211 19.8066 16.5622 19.739L17.3139 18.4557H18.7989C18.8789 18.4552 18.9574 18.4338 19.0265 18.3936C19.0957 18.3534 19.1531 18.2958 19.1931 18.2265C19.2333 18.1568 19.2545 18.0778 19.2545 17.9973C19.2545 17.9169 19.2333 17.8378 19.1931 17.7682L18.2764 16.2465H19.9722C20.0938 16.2465 20.2104 16.1982 20.2963 16.1122C20.3823 16.0263 20.4306 15.9097 20.4306 15.7882V3.22982C20.432 3.11996 20.3939 3.01325 20.3232 2.92912C20.2526 2.845 20.154 2.78905 20.0456 2.77148ZM12.8406 18.6023L12.3547 17.7773C12.3128 17.7098 12.2549 17.6536 12.1862 17.6136C12.1175 17.5737 12.04 17.5512 11.9606 17.5482H11.0072L12.1622 15.5315C12.1751 15.5161 12.1913 15.5037 12.2095 15.4952C12.2277 15.4867 12.2476 15.4823 12.2677 15.4823C12.2878 15.4823 12.3076 15.4867 12.3258 15.4952C12.344 15.5037 12.3602 15.5161 12.3731 15.5315C12.7638 15.954 13.256 16.2696 13.8031 16.4482C13.8337 16.4579 13.8618 16.4742 13.8854 16.4959C13.9091 16.5177 13.9277 16.5444 13.9399 16.5741C13.9521 16.6038 13.9577 16.6358 13.9562 16.6679C13.9548 16.7 13.9463 16.7314 13.9314 16.7598L12.8406 18.6023ZM14.5089 15.614C14.1463 15.614 13.7919 15.5065 13.4904 15.305C13.1889 15.1036 12.9539 14.8172 12.8151 14.4822C12.6764 14.1472 12.6401 13.7786 12.7108 13.423C12.7815 13.0674 12.9561 12.7407 13.2125 12.4843C13.4689 12.2279 13.7956 12.0533 14.1512 11.9825C14.5069 11.9118 14.8755 11.9481 15.2105 12.0869C15.5455 12.2256 15.8318 12.4606 16.0333 12.7621C16.2347 13.0636 16.3422 13.4181 16.3422 13.7807C16.3423 14.2606 16.1542 14.7214 15.8183 15.0642C15.4824 15.407 15.0254 15.6044 14.5456 15.614H14.5089ZM17.0481 17.5482C16.9686 17.5512 16.8912 17.5737 16.8224 17.6136C16.7537 17.6536 16.6958 17.7098 16.6539 17.7773L16.1681 18.6023L15.0956 16.769C15.0789 16.7403 15.0693 16.708 15.0675 16.6748C15.0657 16.6417 15.0717 16.6086 15.0851 16.5782C15.0985 16.5478 15.1189 16.521 15.1446 16.5C15.1703 16.479 15.2006 16.4644 15.2331 16.4573C15.7833 16.3023 16.2728 15.9824 16.6356 15.5407C16.6474 15.5236 16.6631 15.5097 16.6815 15.5001C16.6999 15.4905 16.7203 15.4855 16.741 15.4855C16.7617 15.4855 16.7821 15.4905 16.8005 15.5001C16.8188 15.5097 16.8346 15.5236 16.8464 15.5407L18.0014 17.5573L17.0481 17.5482ZM19.5506 15.3298H17.8181L17.2497 14.3398C17.2866 14.1526 17.3051 13.9623 17.3047 13.7715C17.3047 13.0421 17.015 12.3427 16.4993 11.8269C15.9836 11.3112 15.2841 11.0215 14.5547 11.0215C13.8254 11.0215 13.1259 11.3112 12.6102 11.8269C12.0945 12.3427 11.8047 13.0421 11.8047 13.7715C11.8044 13.9623 11.8229 14.1526 11.8597 14.3398L11.2914 15.3298H2.17057V3.68815H19.5872L19.5506 15.3298Z" fill="#444444"/>
<path d="M14.9772 13.3131H14.1063C13.9848 13.3131 13.8682 13.3614 13.7822 13.4474C13.6963 13.5333 13.648 13.6499 13.648 13.7715C13.648 13.893 13.6963 14.0096 13.7822 14.0955C13.8682 14.1815 13.9848 14.2298 14.1063 14.2298H14.9772C15.0987 14.2298 15.2153 14.1815 15.3012 14.0955C15.3872 14.0096 15.4355 13.893 15.4355 13.7715C15.4355 13.6499 15.3872 13.5333 15.3012 13.4474C15.2153 13.3614 15.0987 13.3131 14.9772 13.3131ZM4.40798 14.5231H8.61548C8.82092 14.5393 9.02748 14.5127 9.22217 14.4452C9.41685 14.3776 9.59547 14.2705 9.74677 14.1306C9.89808 13.9907 10.0188 13.8211 10.1014 13.6323C10.184 13.4435 10.2266 13.2396 10.2266 13.0335C10.2266 12.8275 10.184 12.6236 10.1014 12.4348C10.0188 12.246 9.89808 12.0763 9.74677 11.9364C9.59547 11.7965 9.41685 11.6895 9.22217 11.6219C9.02748 11.5544 8.82092 11.5278 8.61548 11.544H4.40798C4.20254 11.5278 3.99599 11.5544 3.8013 11.6219C3.60661 11.6895 3.428 11.7965 3.27669 11.9364C3.12538 12.0763 3.00465 12.246 2.92208 12.4348C2.8395 12.6236 2.79688 12.8275 2.79688 13.0335C2.79688 13.2396 2.8395 13.4435 2.92208 13.6323C3.00465 13.8211 3.12538 13.9907 3.27669 14.1306C3.428 14.2705 3.60661 14.3776 3.8013 14.4452C3.99599 14.5127 4.20254 14.5393 4.40798 14.5231V14.5231ZM4.40798 12.4606H8.61548C8.6968 12.4503 8.77938 12.4574 8.85774 12.4815C8.93609 12.5056 9.00842 12.5461 9.06992 12.6003C9.13141 12.6545 9.18067 12.7211 9.21441 12.7958C9.24815 12.8705 9.2656 12.9516 9.2656 13.0335C9.2656 13.1155 9.24815 13.1965 9.21441 13.2712C9.18067 13.3459 9.13141 13.4126 9.06992 13.4668C9.00842 13.521 8.93609 13.5615 8.85774 13.5856C8.77938 13.6096 8.6968 13.6168 8.61548 13.6065H4.40798C4.32667 13.6168 4.24408 13.6096 4.16573 13.5856C4.08738 13.5615 4.01505 13.521 3.95355 13.4668C3.89205 13.4126 3.8428 13.3459 3.80906 13.2712C3.77532 13.1965 3.75787 13.1155 3.75787 13.0335C3.75787 12.9516 3.77532 12.8705 3.80906 12.7958C3.8428 12.7211 3.89205 12.6545 3.95355 12.6003C4.01505 12.5461 4.08738 12.5056 4.16573 12.4815C4.24408 12.4574 4.32667 12.4503 4.40798 12.4606V12.4606ZM9.61465 5.86979H12.1447C12.2662 5.86979 12.3828 5.8215 12.4687 5.73555C12.5547 5.64959 12.603 5.53302 12.603 5.41146C12.603 5.2899 12.5547 5.17332 12.4687 5.08737C12.3828 5.00141 12.2662 4.95312 12.1447 4.95312H9.61465C9.49309 4.95312 9.37651 5.00141 9.29056 5.08737C9.20461 5.17332 9.15632 5.2899 9.15632 5.41146C9.15866 5.53228 9.20771 5.6475 9.29316 5.73295C9.37861 5.8184 9.49383 5.86744 9.61465 5.86979V5.86979ZM7.34132 7.59313H14.3447C14.4662 7.59313 14.5828 7.54484 14.6687 7.45888C14.7547 7.37293 14.803 7.25635 14.803 7.13479C14.803 7.01323 14.7547 6.89666 14.6687 6.8107C14.5828 6.72475 14.4662 6.67646 14.3447 6.67646H7.34132C7.21976 6.67646 7.10318 6.72475 7.01723 6.8107C6.93127 6.89666 6.88298 7.01323 6.88298 7.13479C6.88298 7.25635 6.93127 7.37293 7.01723 7.45888C7.10318 7.54484 7.21976 7.59313 7.34132 7.59313ZM7.34132 9.36229H14.3447C14.4662 9.36229 14.5828 9.314 14.6687 9.22805C14.7547 9.14209 14.803 9.02552 14.803 8.90396C14.803 8.7824 14.7547 8.66582 14.6687 8.57987C14.5828 8.49391 14.4662 8.44563 14.3447 8.44563H7.34132C7.21976 8.44563 7.10318 8.49391 7.01723 8.57987C6.93127 8.66582 6.88298 8.7824 6.88298 8.90396C6.88298 9.02552 6.93127 9.14209 7.01723 9.22805C7.10318 9.314 7.21976 9.36229 7.34132 9.36229Z" fill="#444444"/>
</svg>
