<svg width="21" height="21" viewBox="0 0 21 21" fill="none" xmlns="http://www.w3.org/2000/svg">
<g clip-path="url(#clip0_205_22242)">
<path d="M18.8104 2.17532C18.8033 2.04122 18.7479 1.91422 18.6545 1.81777C18.561 1.72132 18.4358 1.66194 18.302 1.65059L11.1207 0.940315C11.0389 0.932028 10.9562 0.942091 10.8788 0.96977C10.8014 0.997448 10.7311 1.04205 10.6732 1.10032L2.20815 9.56587C0.938429 10.8356 0.938429 11.61 2.20815 12.8795L7.57982 18.2517C8.14898 18.8211 8.64843 19.1995 9.23676 19.1995C9.8251 19.1995 10.3245 18.82 10.8926 18.2514L19.359 9.78531C19.4171 9.72723 19.4617 9.65696 19.4893 9.57957C19.517 9.50217 19.5271 9.4196 19.519 9.33781L18.8104 2.17532ZM10.1073 17.4659C9.84037 17.7328 9.45954 18.0881 9.23676 18.0881C9.01371 18.0881 8.6326 17.7328 8.36537 17.4659L2.99371 12.0936C2.16343 11.2636 2.16343 11.1817 2.99371 10.3517L11.2737 2.0717L17.7468 2.71226L18.3879 9.18559L10.1073 17.4659V17.4659Z" fill="#444444"/>
<path d="M7.06794 7.70563L4.54294 10.2303C3.90544 10.8678 3.73044 11.3001 4.46044 12.0301C4.48618 12.056 4.51678 12.0765 4.55048 12.0905C4.58418 12.1045 4.62032 12.1117 4.65683 12.1117C4.69333 12.1117 4.72947 12.1045 4.76317 12.0905C4.79688 12.0765 4.82748 12.056 4.85322 12.0301C4.87903 12.0043 4.89952 11.9737 4.91349 11.94C4.92747 11.9063 4.93466 11.8702 4.93466 11.8337C4.93466 11.7972 4.92747 11.7611 4.91349 11.7274C4.89952 11.6937 4.87903 11.6631 4.85322 11.6373C4.41794 11.202 4.42322 11.1359 4.93572 10.6231L7.46072 8.0984C7.48651 8.07261 7.50696 8.042 7.52092 8.0083C7.53488 7.9746 7.54206 7.93849 7.54206 7.90201C7.54206 7.86554 7.53488 7.82943 7.52092 7.79573C7.50696 7.76203 7.48651 7.73142 7.46072 7.70563C7.43493 7.67984 7.40431 7.65938 7.37061 7.64542C7.33692 7.63146 7.3008 7.62428 7.26433 7.62428C7.22785 7.62428 7.19174 7.63146 7.15804 7.64542C7.12435 7.65938 7.09373 7.67984 7.06794 7.70563V7.70563ZM7.85822 6.91479L7.63238 7.1409C7.60663 7.16673 7.58621 7.19738 7.5723 7.23109C7.55839 7.26481 7.55126 7.30093 7.55131 7.33741C7.55136 7.37388 7.5586 7.40999 7.5726 7.44366C7.58661 7.47734 7.60711 7.50793 7.63294 7.53368C7.65876 7.55943 7.68941 7.57985 7.72313 7.59376C7.75684 7.60767 7.79297 7.6148 7.82944 7.61475C7.86591 7.6147 7.90202 7.60746 7.9357 7.59346C7.96937 7.57945 7.99996 7.55895 8.02572 7.53313L8.25155 7.30701C8.2773 7.28119 8.29772 7.25054 8.31163 7.21683C8.32554 7.18311 8.33267 7.14698 8.33262 7.11051C8.33257 7.07404 8.32533 7.03793 8.31133 7.00426C8.29732 6.97058 8.27682 6.93999 8.25099 6.91424C8.22517 6.88848 8.19452 6.86807 8.1608 6.85416C8.12709 6.84025 8.09096 6.83312 8.05449 6.83317C8.01802 6.83322 7.98191 6.84045 7.94823 6.85446C7.91456 6.86846 7.88397 6.88897 7.85822 6.91479V6.91479ZM14.446 3.64062C13.1763 3.64062 12.1424 4.67396 12.1424 5.94396C12.1424 7.21396 13.1763 8.24729 14.446 8.24729C15.7163 8.24729 16.749 7.21396 16.749 5.94396C16.749 4.67396 15.716 3.64062 14.446 3.64062V3.64062ZM14.446 7.13618C14.1299 7.13581 13.8268 7.0101 13.6033 6.7866C13.3797 6.5631 13.2539 6.26007 13.2535 5.94396C13.2539 5.62785 13.3797 5.32482 13.6033 5.10132C13.8268 4.87782 14.1299 4.7521 14.446 4.75174C14.7621 4.75203 15.0651 4.87774 15.2886 5.10127C15.5121 5.3248 15.6377 5.62788 15.6379 5.94396C15.6376 6.26002 15.512 6.56305 15.2885 6.78656C15.0651 7.01008 14.7621 7.13581 14.446 7.13618V7.13618Z" fill="#444444"/>
</g>
<defs>
<clipPath id="clip0_205_22242">
<rect width="20" height="20" fill="white" transform="translate(0.388672 0.0683594)"/>
</clipPath>
</defs>
</svg>
