<svg width="21" height="21" viewBox="0 0 21 21" fill="none" xmlns="http://www.w3.org/2000/svg">
<g clip-path="url(#clip0_205_22281)">
<path d="M16.222 4.53711H14.5553C13.6362 4.53711 12.8887 5.28455 12.8887 6.20364V8.70343H7.88867V6.20364C7.88867 5.28455 7.14117 4.53711 6.22201 4.53711H4.55534C3.63617 4.53711 2.88867 5.28455 2.88867 6.20364V12.8697C2.88867 13.7888 3.63617 14.5363 4.55534 14.5363H6.22201C7.14117 14.5363 7.88867 13.7888 7.88867 12.8697V10.37H12.8887V12.8697C12.8887 13.7888 13.6362 14.5363 14.5553 14.5363H16.222C17.1412 14.5363 17.8887 13.7888 17.8887 12.8697V6.20364C17.8887 5.28455 17.1412 4.53711 16.222 4.53711V4.53711ZM4.55534 12.8697V6.20364H6.22201L6.22284 12.8697H4.55534ZM14.5553 12.8697V6.20364H16.222L16.2228 12.8697H14.5553ZM18.722 7.87016H20.3887V11.2032H18.722V7.87016ZM0.388672 7.87016H2.05534V11.2032H0.388672V7.87016Z" fill="#444444"/>
</g>
<defs>
<clipPath id="clip0_205_22281">
<rect width="20" height="20" fill="white" transform="translate(0.388672 0.369141)"/>
</clipPath>
</defs>
</svg>
