<svg width="21" height="21" viewBox="0 0 21 21" fill="none" xmlns="http://www.w3.org/2000/svg">
<path d="M9.76302 2.03516V2.86849C9.76302 3.21432 10.0422 3.49349 10.388 3.49349C10.7339 3.49349 11.013 3.21432 11.013 2.86849V2.03516C11.013 1.68932 10.7339 1.41016 10.388 1.41016C10.0422 1.41016 9.76302 1.68932 9.76302 2.03516ZM10.388 17.2435C10.0422 17.2435 9.76302 17.5227 9.76302 17.8685V18.7018C9.76302 19.0477 10.0422 19.3268 10.388 19.3268C10.7339 19.3268 11.013 19.0477 11.013 18.7018V17.8685C11.013 17.5227 10.7339 17.2435 10.388 17.2435ZM7.77552 2.43099C7.64219 2.11432 7.27969 1.96016 6.95885 2.09349C6.63802 2.22682 6.48802 2.58932 6.62135 2.91016L6.93802 3.68099C7.03802 3.92266 7.27135 4.06849 7.51719 4.06849C7.59635 4.06849 7.67552 4.05182 7.75469 4.02266C8.07552 3.88932 8.22552 3.52682 8.09219 3.20599L7.77552 2.43099ZM13.8339 17.0602C13.7005 16.7435 13.338 16.5893 13.0172 16.7227C12.6964 16.856 12.5464 17.2185 12.6797 17.5393L12.9964 18.3102C13.0964 18.5518 13.3297 18.6977 13.5755 18.6977C13.6547 18.6977 13.7339 18.681 13.813 18.6518C14.1339 18.5185 14.2839 18.156 14.1505 17.8352L13.8339 17.0602ZM4.05469 4.03516C3.80885 4.28099 3.80885 4.67682 4.05469 4.91849L4.64635 5.51016C4.76719 5.63099 4.92969 5.69349 5.08802 5.69349C5.24635 5.69349 5.40885 5.63099 5.52969 5.51016C5.77552 5.26432 5.77552 4.86849 5.52969 4.62682L4.93802 4.03516C4.69219 3.78932 4.29635 3.78932 4.05469 4.03516ZM16.1339 15.231C15.888 14.9852 15.4922 14.9852 15.2505 15.231C15.0089 15.4768 15.0047 15.8727 15.2505 16.1143L15.8422 16.706C15.963 16.8268 16.1255 16.8893 16.2839 16.8893C16.4422 16.8893 16.6047 16.8268 16.7255 16.706C16.9714 16.4602 16.9714 16.0643 16.7255 15.8227L16.1339 15.231ZM2.11302 6.93932C1.97969 7.25599 2.13385 7.62266 2.45052 7.75599L3.22135 8.07682C3.30052 8.11016 3.37969 8.12266 3.45885 8.12266C3.70469 8.12266 3.93802 7.97682 4.03802 7.73516C4.17135 7.41849 4.01719 7.05182 3.70052 6.91849L2.92969 6.60182C2.60885 6.46849 2.24219 6.62266 2.11302 6.93932ZM18.3255 12.981L17.5547 12.6602C17.2339 12.5268 16.8714 12.681 16.738 12.9977C16.6047 13.3143 16.7589 13.681 17.0755 13.8143L17.8464 14.131C17.9255 14.1643 18.0047 14.1768 18.0839 14.1768C18.3297 14.1768 18.563 14.031 18.663 13.7893C18.7964 13.4768 18.6464 13.1102 18.3255 12.981ZM3.51302 10.3685C3.51302 10.0227 3.23385 9.74349 2.88802 9.74349H2.05469C1.70885 9.74349 1.42969 10.0227 1.42969 10.3685C1.42969 10.7143 1.70885 10.9935 2.05469 10.9935H2.88802C3.23385 10.9935 3.51302 10.7143 3.51302 10.3685ZM18.7214 9.74349H17.888C17.5422 9.74349 17.263 10.0227 17.263 10.3685C17.263 10.7143 17.5422 10.9935 17.888 10.9935H18.7214C19.0672 10.9935 19.3464 10.7143 19.3464 10.3685C19.3464 10.0227 19.0672 9.74349 18.7214 9.74349ZM4.03802 13.0018C3.90469 12.6852 3.54219 12.531 3.22135 12.6643L2.45052 12.981C2.12969 13.1143 1.97969 13.4768 2.11302 13.7977C2.21302 14.0393 2.44635 14.1852 2.69219 14.1852C2.77135 14.1852 2.85052 14.1685 2.92969 14.1393L3.70052 13.8227C4.01719 13.6852 4.16719 13.3185 4.03802 13.0018ZM17.3172 8.12266C17.3964 8.12266 17.4755 8.10599 17.5547 8.07682L18.3255 7.76016C18.6464 7.62682 18.7964 7.26432 18.663 6.94349C18.5297 6.62682 18.1672 6.47266 17.8464 6.60599L17.0755 6.92266C16.7547 7.05599 16.6047 7.41849 16.738 7.73932C16.838 7.97682 17.0714 8.12266 17.3172 8.12266ZM4.64219 15.231L4.05469 15.8185C3.80885 16.0643 3.80885 16.4602 4.05469 16.7018C4.17552 16.8227 4.33802 16.8852 4.49635 16.8852C4.65469 16.8852 4.81719 16.8227 4.93802 16.7018L5.52969 16.1102C5.77552 15.8643 5.77552 15.4685 5.52969 15.2268C5.28385 14.9852 4.88802 14.9852 4.64219 15.231ZM16.7214 4.03516C16.4755 3.78932 16.0797 3.78932 15.838 4.03516L15.2464 4.62682C15.0005 4.87266 15.0005 5.26849 15.2464 5.51016C15.3672 5.63099 15.5297 5.69349 15.688 5.69349C15.8464 5.69349 16.0089 5.63099 16.1297 5.51016L16.7214 4.91849C16.9672 4.67266 16.9672 4.27682 16.7214 4.03516ZM7.75469 16.7185C7.43385 16.5852 7.07135 16.7393 6.93802 17.056L6.62135 17.8268C6.48802 18.1435 6.64219 18.5102 6.95885 18.6435C7.03802 18.6768 7.11719 18.6893 7.19635 18.6893C7.44219 18.6893 7.67552 18.5435 7.77552 18.3018L8.09219 17.531C8.22552 17.2185 8.07552 16.8518 7.75469 16.7185ZM13.0005 2.43099L12.6797 3.20182C12.5464 3.51849 12.7005 3.88516 13.0172 4.01849C13.0964 4.05182 13.1755 4.06432 13.2547 4.06432C13.5005 4.06432 13.7339 3.91849 13.8339 3.67682L14.1505 2.90599C14.2839 2.58932 14.1297 2.22266 13.813 2.08932C13.4964 1.96016 13.1297 2.11016 13.0005 2.43099ZM10.388 4.32682C7.05469 4.32682 4.34635 7.03516 4.34635 10.3685C4.34635 13.7018 7.05469 16.4102 10.388 16.4102C13.7214 16.4102 16.4297 13.7018 16.4297 10.3685C16.4297 7.03516 13.7214 4.32682 10.388 4.32682ZM10.388 15.1602C7.74635 15.1602 5.59635 13.0102 5.59635 10.3685C5.59635 7.72682 7.74635 5.57682 10.388 5.57682C13.0297 5.57682 15.1797 7.72682 15.1797 10.3685C15.1797 13.0102 13.0297 15.1602 10.388 15.1602Z" fill="#444444"/>
</svg>
