<svg width="19" height="19" viewBox="0 0 19 19" fill="none" xmlns="http://www.w3.org/2000/svg">
<g clip-path="url(#clip0_205_22239)">
<path fill-rule="evenodd" clip-rule="evenodd" d="M9.00781 11.0266C8.01511 11.0266 7.20781 10.2193 7.20781 9.22656C7.20781 8.23386 8.01511 7.42656 9.00781 7.42656C10.0005 7.42656 10.8078 8.23386 10.8078 9.22656C10.8078 10.2193 10.0005 11.0266 9.00781 11.0266ZM18.0078 8.32656V6.52656H16.2078V7.42656L15.3078 8.32656H12.4809C12.4023 8.02697 12.2849 7.73902 12.1317 7.46985L14.0991 5.62656H15.3717L16.008 6.15391L17.2806 4.74897L16.008 3.34426L15.3717 3.82656H14.4078V2.86262L14.8902 2.22629L13.5402 0.953857L12.1191 2.22629L12.6078 2.86262V4.13528L10.7385 6.08821C10.4768 5.94209 10.1977 5.82975 9.90781 5.75356V2.92656L10.8078 2.02656H11.7078V0.226562H9.90781V1.12656L9.00781 2.02656L8.10781 1.12656V0.226562H6.30781V2.02656H7.20781L8.10781 2.92656V5.75356C7.80822 5.83214 7.52018 5.94948 7.25102 6.10271L5.40781 4.13528V2.86262L5.93521 2.22629L4.53031 0.953857L3.12542 2.22629L3.60781 2.86262V3.82656H2.64391L2.00761 3.34426L0.735011 4.69426L2.00761 6.11523L2.64391 5.62656H3.91651L5.86951 7.49578C5.72551 7.75588 5.61122 8.03226 5.53472 8.32656H2.70781L1.80781 7.42656V6.52656H0.0078125V8.32656H0.907812L1.80781 9.22656L0.907812 10.1266H0.0078125V11.9266H1.80781V11.0266L2.70781 10.1266H5.53472C5.61392 10.4308 5.73272 10.716 5.88392 10.9833L3.91651 12.8266H2.64391L2.00761 12.2992L0.735011 13.7042L2.00761 15.1089L2.64391 14.6266H3.60781V15.5905L3.12542 16.2268L4.47542 17.4993L5.89651 16.2268L5.40781 15.5905V14.3178L7.27711 12.3649C7.53721 12.5089 7.81351 12.6231 8.10781 12.6996V15.5266L7.20781 16.4266H6.30781V18.2266H8.10781V17.3266L9.00781 16.4266L9.90781 17.3266V18.2266H11.7078V16.4266H10.8078L9.90781 15.5266V12.6996C10.2074 12.621 10.4954 12.5036 10.7646 12.3504L12.6078 14.3178V15.5905L12.0804 16.2268L13.4853 17.4993L14.8902 16.2268L14.4078 15.5905V14.6266H15.3717L16.008 15.1089L17.2806 13.7589L16.008 12.3379L15.3717 12.8266H14.0991L12.1461 10.9573C12.2901 10.6972 12.4044 10.4209 12.4809 10.1266H15.3078L16.2078 11.0266V11.9266H18.0078V10.1266H17.1078L16.2078 9.22656L17.1078 8.32656H18.0078Z" fill="#444444"/>
</g>
<defs>
<clipPath id="clip0_205_22239">
<rect width="18" height="18" fill="white" transform="translate(0.0078125 0.226562)"/>
</clipPath>
</defs>
</svg>
